<?xml version="1.0" encoding="utf-8"?>
<!-- Generator: Adobe Illustrator 23.0.1, SVG Export Plug-In . SVG Version: 6.00 Build 0)  -->
<svg version="1.1" xmlns="http://www.w3.org/2000/svg" xmlns:xlink="http://www.w3.org/1999/xlink" x="0px" y="0px"
	 viewBox="0 0 802 990" style="enable-background:new 0 0 802 990;" xml:space="preserve">
<style type="text/css">
	.st0{fill:#603813;}
	.st1{fill:#754C24;}
	.st2{fill:#4D4D4D;}
	.st3{fill:#333333;}
	.st4{fill:#CCCCCC;}
	.st5{fill:#FFC794;}
	.st6{fill:#FBB03B;}
	.st7{fill:#1976D2;}
	.st8{opacity:0.69;fill:#CC9F76;}
	.st9{fill:#C2C2C2;}
	.st10{fill:#A8A8A8;}
	.st11{fill:#2196F3;}
	.st12{fill:#E3B184;}
	.st13{fill:#E6B385;}
	.st14{fill:#CC9F76;}
	.st15{fill:#FFC693;}
</style>
<g id="silla">
	<rect x="476.3" y="719.18" class="st0" width="27.68" height="206.57"/>
	<rect x="307.43" y="719.18" class="st0" width="27.68" height="206.57"/>
	<rect x="284.59" y="732.17" class="st1" width="245.41" height="33.21"/>
	<rect x="287.59" y="739.18" class="st1" width="27.68" height="226.82"/>
	<rect x="498.73" y="739.18" class="st1" width="27.68" height="226.82"/>
	<g>
		<path class="st0" d="M528.9,732c-81.27,0-162.53,0-243.8,0c10.6-16.67,21.2-33.33,31.8-50c60.07,0,120.13,0,180.2,0
			C507.7,698.67,518.3,715.33,528.9,732z"/>
	</g>
	<rect x="315" y="430" class="st1" width="184" height="26"/>
	<rect x="315" y="430" class="st1" width="20" height="258"/>
	<rect x="479" y="430" class="st1" width="20" height="258"/>
	<rect x="397" y="430" class="st1" width="20" height="258"/>
</g>
<g id="Inferior_sentado">
	<polyline class="st2" points="387.4,739.29 405.3,714 426.7,739.29 505.75,701.24 476.33,655 338.5,647 315,715 	"/>
	<path class="st2" d="M394,719c-4.15,38.98-19.42,34.02-40,35.71C326,757,306,759,314,710c3.98-24.37,17.91-40,40-40
		S396.61,694.45,394,719z"/>
	<ellipse class="st3" cx="353" cy="710" rx="31.58" ry="35.29"/>
	<path class="st5" d="M352.31,688c23,0,28,18,27.68,29l-53-3C326.68,704,330.31,688,352.31,688z"/>
	<polygon class="st2" points="326.14,921.48 365.05,921.48 368.39,938.12 373.51,961.17 355.59,985.5 326.14,985.5 305.65,985.5 
		313.33,953.49 	"/>
	<path class="st5" d="M326.46,715l-1.6,84.84l2.56,121.64l37.13,8.96c0,0,5.37-93.38,5.12-121.64c-0.18-20.71,5.26-60.64,10.33-94.8
		c-9-1-18.03-2-28.5-2c-8.89,0-16.87-0.9-24.5-2L326.46,715"/>
	<path class="st2" d="M426.87,716c0.13,38,20.22,41.66,40,35.71c3.2-0.96,44.17-3.75,40.13-44.71c-1.87-19-23.02-30.97-45-31
		C439.91,675.97,426.79,691.31,426.87,716z"/>
	<ellipse class="st3" cx="466.87" cy="712" rx="31.58" ry="35.29"/>
	<path class="st5" d="M467.56,690c-23,0-28,18-27.68,29l53-3C493.19,706,489.56,690,467.56,690z"/>
	<path class="st5" d="M493.42,717l1.6,84.84l-2.56,121.64l-37.13,8.96c0,0-5.37-93.38-5.12-121.64c0.18-20.71-5.26-60.64-10.33-94.8
		c9-1,18.03-2,28.5-2c8.89,0,16.87-0.9,24.5-2L493.42,717"/>
	<polygon class="st2" points="496.43,921.48 457.52,921.48 454.18,938.12 449.06,961.17 466.98,985.5 496.43,985.5 516.92,985.5 
		509.24,953.49 	"/>
</g>
<g id="Superior_sentado">
	<path class="st7" d="M366.57,467.1c0-4.67,1.76-9.08,4.86-12.99c-19.22,0.03-38.43,1.3-57.51,3.83
		c-13.06,21.81-15.08,49.35-18.27,73.46c33.85,1.58,79.27,16.2,108.11-6.99c0.31-9.64,0.47-19.26,0.51-28.87
		C382.86,493.22,366.57,481.38,366.57,467.1z"/>
	<path class="st7" d="M448.07,467.1c0-4.67-1.76-9.08-4.86-12.99c19.22,0.03,38.43,1.3,57.51,3.83
		c13.06,21.81,15.08,49.35,18.27,73.46c-33.85,1.58-79.27,16.2-108.11-6.99c-0.31-9.64-0.47-19.26-0.51-28.87
		C431.78,493.22,448.07,481.38,448.07,467.1z"/>
	<path class="st5" d="M433.23,430.39c0-13.35,1.66-25.83,4.55-36.45h-56.51c2.88,10.62,4.55,23.09,4.55,36.45
		c0,17.9-2.99,34.23-7.9,46.61v3.27h64.22v-0.89C436.62,466.75,433.23,449.47,433.23,430.39z"/>
	<path class="st8" d="M438.27,398.27h-56.51c2.88,10.62,4.55,23.09,4.55,36.45c0,1.23-0.02,2.45-0.05,3.67
		c7.32,1.96,15.34,3.05,23.76,3.05c8.41,0,16.43-1.09,23.75-3.04c-0.03-1.22-0.04-2.44-0.04-3.67
		C433.72,421.36,435.38,408.88,438.27,398.27z"/>
	<path class="st9" d="M428.29,419.84h-20.25h-20.25c-11.14,0-21.27-4.42-28.61-11.55c-7.34-7.13-11.9-16.96-11.9-27.77
		c0,0,3.95-32.33,3.95-43.16s-3.95-43.16-3.95-43.16c0-10.81,4.56-20.64,11.9-27.77c2.25-2.18,29.16-20.13,32.56-21.14
		c2.49-0.74-5.24,16.43-3.95,14.39c3.53-5.59,28.21-17.85,37.54-15.35l-8.89,11.51l11.86-0.96c4.94,0,22.72-2.88,22.72-2.88
		s-5.91,3.26-2.96,7.67c1.15,1.73,5.53,4.05,8.85,6.76c7.34,7.13,11.9,16.96,11.9,27.77c0,0-2.96,32.35-2.96,43.16
		s2.96,43.16,2.96,43.16c0,10.81-4.56,20.64-11.9,27.77C449.55,415.42,439.42,419.84,428.29,419.84z"/>
	<path class="st10" d="M455.95,405.46c-7.34,7.13-12.84,4.8-22.72,2.88c0,0-17.54-7.59-24.7-7.67c-7.33-0.09-25.69,8.63-25.69,8.63
		c-10.87,1.92-15.38,1.37-22.72-5.75c-7.34-7.13-12.84-12.2-12.84-23.02c0,10.81,4.56,20.64,11.9,27.77
		c7.34,7.13,17.47,11.55,28.61,11.55h20.25h20.25c11.14,0,21.27-4.42,28.61-11.55c5.14-4.99,8.91-11.32,10.71-18.38
		C465.22,397.99,459.72,400.33,455.95,405.46z"/>
	<path class="st5" d="M423.64,376.69c0,0-9.3-4.77-13.14-4.8c-3.92-0.02-13.52,4.8-13.52,4.8h-4.43c-8.55,0-16.32-2.7-21.96-7.05
		c-5.64-4.35-9.13-10.35-9.13-16.95c0,0,3.03-19.73,3.03-26.35c0-6.61-3.03-26.35-3.03-26.35c0-3.69,4.62-5.34,6.57-8.47
		c1.54-2.47,1.46-11.69,3.95-13.61c2.64-2.03,6.45,7.12,9.88,5.91c3.91-1.37,6.14-7.83,10.69-7.83l-3.78,9.76
		c0,0,10.19-10.71,13.83-8.8c1.74,0.91,0,7.67,0,7.67l20.75-8.5c4.28,0,13.83,11.38,12.36,1.76c-0.57-3.77,7.12,2.93,9.89,5.16
		c3.15,2.53,2.33,5.16,5.74,6.09c3.85,1.05,3.39,6.96,3.39,10.86c0,0-2.28,19.75-2.28,26.35s2.28,26.35,2.28,26.35
		c0,6.6-3.5,12.6-9.13,16.95C439.96,373.99,432.19,376.69,423.64,376.69z"/>
	<path class="st11" d="M466.16,454.43c-8.37-0.86-16.76-1.52-25.16-2.01c-6.04,3.77-18.65,6.37-33.23,6.37s-27.19-2.6-33.23-6.37
		c-8.41,0.49-16.8,1.15-25.16,2.01c-16.54,72.04-24.87,139.5-22.08,207.98c39.32-8.75,56.15,5.32,79.66,10.83
		c32.49,7.61,48.18-20.67,81.28-10.83C491.03,593.93,482.71,526.47,466.16,454.43z"/>
	<path class="st12" d="M517.78,565.61c0,0-72.33-5.7-96.75-9.3c-17.68-2.6-70.62-12.38-70.62-12.38l14.26-28.81l152.84,15.48
		L517.78,565.61z"/>
	<ellipse class="st13" cx="352.68" cy="529.46" rx="18.07" ry="17.54"/>
	<path class="st14" d="M340.96,528.19c-1.17,8.6,2.92,16.43,9.45,19.13c-1.13,0.15-2.28,0.18-3.45,0.03
		c-8.41-1.08-14.13-10.05-12.77-20.02s9.28-17.19,17.69-16.11c1.16,0.15,2.27,0.46,3.32,0.9
		C348.17,513.07,342.13,519.6,340.96,528.19z"/>
	<path class="st5" d="M297.48,531.78c0,0,72.16-7.43,96.84-8.29c17.88-0.63,71.76-0.56,71.76-0.56l-8.5,30.88l-153.14,12.31
		L297.48,531.78z"/>
	<ellipse class="st15" cx="464.21" cy="532.79" rx="18.07" ry="17.54"/>
	<path class="st14" d="M467.92,548.24c8.88-0.94,15.75-6.65,16.89-13.45c0.42,1.03,0.72,2.11,0.85,3.24c0.92,8.19-6.7,15.71-17,16.8
		s-19.41-4.67-20.33-12.85c-0.13-1.13-0.08-2.25,0.11-3.35C451.07,545.03,459.04,549.18,467.92,548.24z"/>
</g>
</svg>
