<svg xmlns="http://www.w3.org/2000/svg" viewBox="0 0 602.14 960.14">
  <defs>
    <style>
      .cls-1 {
        fill: #f0bb8c;
      }

      .cls-2, .cls-9 {
        fill: #cc9f76;
      }

      .cls-3 {
        fill: #4d4d4d;
      }

      .cls-4 {
        fill: #ffc794;
      }

      .cls-5 {
        fill: #454545;
      }

      .cls-6 {
        fill: #ccc;
      }

      .cls-7 {
        fill: #fbb03b;
      }

      .cls-8 {
        fill: #1976d2;
      }

      .cls-9 {
        opacity: 0.69;
      }

      .cls-10 {
        fill: #c2c2c2;
      }

      .cls-11 {
        fill: #a8a8a8;
      }

      .cls-12 {
        fill: #2196f3;
      }
    </style>
  </defs>
  <title>person_desbalan_2</title>
  <g id="Capa_8" data-name="Capa 8">
    <path class="cls-1" d="M431.89,891.32l33.2-7.77,3-108.59-1.46-121.19-53.73-.36s15.63,96.93,15.12,129.28C427.66,807.92,431.89,891.32,431.89,891.32Z" transform="translate(-152.68 -27.31)"/>
    <path class="cls-2" d="M419.07,689.93c-1.75-12.36-3.39-23.23-4.53-30.62a145.8,145.8,0,0,1,30.6-2.82,158,158,0,0,1,21.65,1.59l.4,32.74a155.87,155.87,0,0,1-22.29,1.38A152.41,152.41,0,0,1,419.07,689.93Z" transform="translate(-152.68 -27.31)"/>
    <polygon class="cls-3" points="314.75 849.39 280 849.15 276.92 863.99 272.21 884.54 288.06 906.37 314.36 906.55 332.65 906.67 325.98 878.05 314.75 849.39"/>
    <path class="cls-4" d="M368.77,643.78a219.86,219.86,0,0,1-31,1.75L349.59,756l22,149.29,47.08,5.28s-7.86-115.75-12.54-150.49c-3.43-25.45-3.06-80.86-2.11-123.68A212,212,0,0,1,368.77,643.78Z" transform="translate(-152.68 -27.31)"/>
    <path class="cls-2" d="M410.89,697.2c.85-15.29,1.73-28.75,2.36-37.91a179.33,179.33,0,0,0-37.71-.28,194.77,194.77,0,0,0-26.31,4.2l2.91,40.07a192.46,192.46,0,0,0,27.4-.62A187.77,187.77,0,0,0,410.89,697.2Z" transform="translate(-152.68 -27.31)"/>
    <path class="cls-5" d="M384.54,615.27l12.82,63.12s33.49,3.33,44.61,2.34c11.59-1,45.32-10.58,45.32-10.58l5.79-198.64L373.22,482.58" transform="translate(-152.68 -27.31)"/>
    <path class="cls-3" d="M395.59,496.51l-109.18,9.91L324,701.08s35.86,3.11,47.77,2.06c12.49-1.11,49-10.92,49-10.92l-1.85-64.12" transform="translate(-152.68 -27.31)"/>
    <path class="cls-6" d="M349.68,700.79" transform="translate(-152.68 -27.31)"/>
    <path class="cls-7" d="M383.12,794.63" transform="translate(-152.68 -27.31)"/>
    <path class="cls-7" d="M384,801.24" transform="translate(-152.68 -27.31)"/>
    <polygon class="cls-3" points="217.33 878.18 265.22 872.15 271.91 892.11 281.78 919.68 263.49 952.4 227.25 956.96 202.04 960.14 206.53 919.55 217.33 878.18"/>
  </g>
  <g id="Superior_desbalanceado" data-name="Superior desbalanceado">
    <circle class="cls-4" cx="579" cy="373.06" r="23.05"/>
    <path class="cls-4" d="M526.11,323.49s88.62,19.7,118.1,28.91c21.35,6.68,88.73,29.68,88.73,29.68l-16.13,26.21L517.19,377.18Z" transform="translate(-152.68 -27.31)"/>
    <path class="cls-2" d="M732.25,413.74c11-.49,19.82-7.17,21.77-15.66a15.17,15.17,0,0,1,.78,4.15c.48,10.41-9.45,19.31-22.17,19.89s-23.4-7.4-23.87-17.8a15.13,15.13,0,0,1,.4-4.21C711.87,408.39,721.3,414.24,732.25,413.74Z" transform="translate(-152.68 -27.31)"/>
    <path class="cls-8" d="M507.8,322.21a26.77,26.77,0,0,0,.32-17.47c22,8.5,65.16,20.88,85.88,32.26,5.08,31.5-2.73,22.14-10,52-78-16-92-26-144.78-15.5q6-17.26,12.5-34.31C477.29,345.87,501.33,339.05,507.8,322.21Z" transform="translate(-152.68 -27.31)"/>
    <circle class="cls-4" cx="23.25" cy="176.18" r="23.05"/>
    <path class="cls-4" d="M390.35,273.21s-82.12-38.72-111.06-49.5c-21-7.8-93.15-35.45-93.15-35.45l-3.3,30.6L364.51,321.12Z" transform="translate(-152.68 -27.31)"/>
    <path class="cls-2" d="M167.29,213.71c-8.36-7.1-11.27-17.81-7.61-25.72a15.9,15.9,0,0,0-3.17,2.81c-6.74,7.94-4.35,21,5.35,29.3s23,8.5,29.77.56a15.5,15.5,0,0,0,2.27-3.57C186.68,222,175.64,220.82,167.29,213.71Z" transform="translate(-152.68 -27.31)"/>
    <path class="cls-8" d="M405.61,283.41a26.79,26.79,0,0,1,10.44-14c-22.59-6.76-64.29-23.41-87.64-27.11-23.3,21.78-11.4,19.17-24,47.23,71.45,35.13,88.65,35.81,123.93,76.44q5.82-17.34,11.14-34.77C415.23,320.8,400.4,300.69,405.61,283.41Z" transform="translate(-152.68 -27.31)"/>
    <path class="cls-4" d="M503.39,266.53a183.14,183.14,0,0,1,12.9-44.6l-68.48-11.12a183,183,0,0,1-1.88,46.38c-3.63,22.34-10.57,42.13-19,56.61l-.66,4.08,77.81,12.65.18-1.12C500.13,312.57,499.52,290.33,503.39,266.53Z" transform="translate(-152.68 -27.31)"/>
    <path class="cls-9" d="M516,227.42l-68.47-11.13a183,183,0,0,1-1.89,46.38c-.25,1.54-.51,3.06-.8,4.57a112.39,112.39,0,0,0,57.57,9.36q.31-2.28.69-4.59A183.5,183.5,0,0,1,516,227.42Z" transform="translate(-152.68 -27.31)"/>
    <path class="cls-10" d="M499.54,252.39l-24.54-4-24.54-4a49.86,49.86,0,0,1-41.1-57s11.34-39.57,13.54-53.09,4-54.65,4-54.65A49.56,49.56,0,0,1,446.92,47.3c3.16-2.28,39.42-19.38,43.74-20C493.82,26.88,481,46.8,483,44.5c5.41-6.28,37.8-16.72,48.6-11.76L518.44,45.35,533,46.49c6,1,28.12.88,28.12.88s-7.83,2.91-5.15,9c1,2.38,5.88,6.13,9.35,10.17a49.6,49.6,0,0,1,8.79,37S564,143.33,561.76,156.83s-5.16,54.45-5.16,54.45a49.88,49.88,0,0,1-57.06,41.11Z" transform="translate(-152.68 -27.31)"/>
    <path class="cls-11" d="M536,239.88c-10.34,7.45-16.53,3.45-28.12-.89,0,0-19.71-12.92-28.37-14.44-8.87-1.55-32.87,5.72-32.87,5.72-13.56.26-18.92-1.31-26.37-11.66s-13.08-17.76-10.89-31.25a49.86,49.86,0,0,0,41.1,57l24.54,4,24.54,4a49.94,49.94,0,0,0,53.72-29.61C548.72,232.39,541.59,234.22,536,239.88Z" transform="translate(-152.68 -27.31)"/>
    <path class="cls-4" d="M502.67,197.6s-10.31-7.78-14.95-8.57-17.36,3.32-17.36,3.32l-5.37-.87a43.39,43.39,0,0,1-25.17-13.12c-5.95-6.54-9-14.72-7.63-23,0,0,7.68-24,9-32.29s1.67-33.48,1.67-33.48c.74-4.6,6.68-5.76,9.67-9.28,2.37-2.79,4.15-14.31,7.55-16.22,3.61-2,6.37,10.16,10.77,9.33,5-.94,9-8.57,14.55-7.67l-6.56,11.43S493.38,65.87,497.4,69c1.93,1.48-1.55,9.57-1.55,9.57L522.71,72c5.18.84,14.45,16.92,14.62,4.63.07-4.81,8,5.06,10.94,8.39,3.3,3.78,1.77,6.89,5.72,8.73,4.46,2.06,2.7,9.35,1.91,14.22,0,0-6.77,24.2-8.1,32.44s-2.59,33.33-2.59,33.33c-1.34,8.24-6.8,15-14.51,19.37A43.39,43.39,0,0,1,502.67,197.6Z" transform="translate(-152.68 -27.31)"/>
    <path class="cls-12" d="M534.28,315.21q-13.8-7.05-27.93-13.45c-8.62,1.8-24.25-.69-41-7.1s-30-15-35.19-22.14q-14.79-4.68-29.75-8.7c-51.62,77.76-91.73,153.74-119.57,235.8C320,549,408,552,465.31,570.44,499.55,490.83,520.58,407.53,534.28,315.21Z" transform="translate(-152.68 -27.31)"/>
  </g>
</svg>
