<svg xmlns="http://www.w3.org/2000/svg" viewBox="0 0 274.25 984.67">
  <defs>
    <style>
      .cls-1 {
        fill: #f0bb8c;
      }

      .cls-2, .cls-9 {
        fill: #cc9f76;
      }

      .cls-3 {
        fill: #4d4d4d;
      }

      .cls-4 {
        fill: #ffc794;
      }

      .cls-5 {
        fill: #454545;
      }

      .cls-6 {
        fill: #ccc;
      }

      .cls-7 {
        fill: #fbb03b;
      }

      .cls-8 {
        fill: #1976d2;
      }

      .cls-9 {
        opacity: 0.69;
      }

      .cls-10 {
        fill: #c2c2c2;
      }

      .cls-11 {
        fill: #a8a8a8;
      }

      .cls-12 {
        fill: #2196f3;
      }
    </style>
  </defs>
  <title>person_balan_2</title>
  <g id="Capa_8" data-name="Capa 8">
    <path class="cls-1" d="M417.15,898.48l33.77-4.72,12.92-107.85,9.59-120.82L420,659.83s6.73,97.95,3.27,130.12C420.54,815,417.15,898.48,417.15,898.48Z" transform="translate(-267.17 -2.5)"/>
    <path class="cls-2" d="M422.75,696.75c-.62-12.46-1.26-23.44-1.72-30.9a145.54,145.54,0,0,1,30.73,0,159.51,159.51,0,0,1,21.41,3.56L470.58,702a156.93,156.93,0,0,1-22.32-.66A151.71,151.71,0,0,1,422.75,696.75Z" transform="translate(-267.17 -2.5)"/>
    <polygon class="cls-3" points="186.7 884.66 152.12 881.26 147.7 895.76 141.13 915.79 154.93 938.97 181.1 941.55 199.3 943.34 195.28 914.22 186.7 884.66"/>
    <path class="cls-4" d="M376.87,646.21a218,218,0,0,1-31-1.09l1.67,111.09,8.3,150.68,46.4,9.55s2.73-116,1.23-151c-1.09-25.67,4.33-80.81,9.18-123.37A211.1,211.1,0,0,1,376.87,646.21Z" transform="translate(-267.17 -2.5)"/>
    <path class="cls-2" d="M413.93,703.25c2.25-15.15,4.36-28.48,5.82-37.54A179.44,179.44,0,0,0,382.22,662a193.5,193.5,0,0,0-26.58,1.77l-.76,40.17a192.24,192.24,0,0,0,27.34,1.89A187.58,187.58,0,0,0,413.93,703.25Z" transform="translate(-267.17 -2.5)"/>
    <path class="cls-5" d="M395.18,619.26l7,64s33,6.37,44.21,6.4c11.64,0,46.1-6.4,46.1-6.4L516.37,486,396,486.09" transform="translate(-267.17 -2.5)"/>
    <path class="cls-3" d="M417,502l-109.63-.09L327,699.19s35.42,6.36,47.38,6.4c12.54,0,49.77-6.4,49.77-6.4l4-64" transform="translate(-267.17 -2.5)"/>
    <path class="cls-6" d="M352.65,701.24" transform="translate(-267.17 -2.5)"/>
    <path class="cls-7" d="M377.39,797.74" transform="translate(-267.17 -2.5)"/>
    <path class="cls-7" d="M377.62,804.4" transform="translate(-267.17 -2.5)"/>
    <polygon class="cls-3" points="87.06 904.45 135.31 902.81 140.15 923.3 147.46 951.66 126.27 982.57 89.76 983.81 64.36 984.67 72.54 944.67 87.06 904.45"/>
  </g>
  <g id="Superior_normal" data-name="Superior normal">
    <circle class="cls-4" cx="251.03" cy="540.13" r="23.05"/>
    <path class="cls-4" d="M536.42,327.66s5.54,90.62,4.83,121.49c-.52,22.36-5.12,89.64-5.12,89.64L488.75,526l-6.4-192.07Z" transform="translate(-267.17 -2.5)"/>
    <path class="cls-2" d="M518.2,557.29c11,0,20.13-6.27,22.46-14.66a15.76,15.76,0,0,1,.59,4.19c0,10.41-10.32,18.85-23,18.85s-23.05-8.44-23.05-18.85a15.37,15.37,0,0,1,.6-4.19C498.08,551,507.24,557.29,518.2,557.29Z" transform="translate(-267.17 -2.5)"/>
    <circle class="cls-4" cx="23.11" cy="540.13" r="23.05"/>
    <path class="cls-4" d="M272.07,327.66s-5.55,90.62-4.83,121.49c.51,22.36,5.12,89.64,5.12,89.64L319.73,526l6.41-192.07Z" transform="translate(-267.17 -2.5)"/>
    <path class="cls-8" d="M354.31,284.62a26.7,26.7,0,0,1,6-16.42,529.8,529.8,0,0,0-70.6,4.84c-16,27.58-18.52,62.4-22.43,92.89,41.55,2,97.31,20.48,132.71-8.84q.56-18.29.62-36.51C374.31,317.64,354.31,302.66,354.31,284.62Z" transform="translate(-267.17 -2.5)"/>
    <path class="cls-8" d="M454.35,284.62a26.7,26.7,0,0,0-6-16.42A529.92,529.92,0,0,1,519,273c16,27.58,18.51,62.4,22.43,92.89-41.55,2-97.31,20.48-132.71-8.84q-.56-18.29-.63-36.51C434.35,317.64,454.35,302.66,454.35,284.62Z" transform="translate(-267.17 -2.5)"/>
    <path class="cls-4" d="M436.13,238.2a183.18,183.18,0,0,1,5.58-46.09H372.34a183.64,183.64,0,0,1,5.58,46.09c0,22.64-3.68,43.28-9.71,58.93v4.13H447v-1.13C440.3,284.17,436.13,262.32,436.13,238.2Z" transform="translate(-267.17 -2.5)"/>
    <path class="cls-9" d="M442.32,197.57H372.94a183.12,183.12,0,0,1,5.58,46.09c0,1.55,0,3.1,0,4.64a112.35,112.35,0,0,0,58.32,0c0-1.54-.05-3.09-.05-4.64A183.12,183.12,0,0,1,442.32,197.57Z" transform="translate(-267.17 -2.5)"/>
    <path class="cls-10" d="M430.07,224.86H380.34a49.87,49.87,0,0,1-49.72-49.73s4.85-40.87,4.85-54.57S330.62,66,330.62,66a49.57,49.57,0,0,1,14.6-35.12c2.76-2.76,35.8-25.45,40-26.74,3.06-.94-6.44,20.78-4.85,18.2C384.67,15.26,415-.25,426.43,2.92L415.51,17.47l14.56-1.21c6.06,0,27.89-3.64,27.89-3.64s-7.26,4.13-3.64,9.71c1.42,2.18,6.78,5.11,10.86,8.54A49.58,49.58,0,0,1,479.79,66s-3.64,40.9-3.64,54.57,3.64,54.57,3.64,54.57a49.88,49.88,0,0,1-49.72,49.73Z" transform="translate(-267.17 -2.5)"/>
    <path class="cls-11" d="M464,206.67c-9,9-15.76,6.06-27.89,3.64,0,0-21.53-9.6-30.32-9.71-9-.11-31.53,10.92-31.53,10.92-13.34,2.42-18.88,1.73-27.9-7.28s-15.76-15.43-15.76-29.11a49.87,49.87,0,0,0,49.72,49.73h49.73A49.92,49.92,0,0,0,478.33,187C475.4,197.23,468.65,200.18,464,206.67Z" transform="translate(-267.17 -2.5)"/>
    <path class="cls-4" d="M424.36,170.28s-11.42-6-16.12-6.06-16.61,6.06-16.61,6.06h-5.44a43.43,43.43,0,0,1-26.95-8.91c-6.92-5.5-11.22-13.09-11.22-21.44,0,0,3.73-25,3.73-33.32S348,73.3,348,73.3c0-4.67,5.68-6.76,8.07-10.72,1.88-3.13,1.79-14.78,4.85-17.21,3.23-2.58,7.91,9,12.12,7.48,4.8-1.74,7.54-9.91,13.13-9.91l-4.64,12.34s12.52-13.54,17-11.12c2.14,1.15,0,9.7,0,9.7L424,43.11c5.25,0,17,14.39,15.18,2.23-.71-4.77,8.73,3.7,12.13,6.52,3.87,3.2,2.86,6.52,7.06,7.7,4.73,1.32,4.16,8.8,4.16,13.74,0,0-2.8,25-2.8,33.31s2.8,33.32,2.8,33.32c0,8.35-4.3,15.94-11.22,21.44A43.41,43.41,0,0,1,424.36,170.28Z" transform="translate(-267.17 -2.5)"/>
    <path class="cls-12" d="M476.56,268.59q-15.4-1.62-30.89-2.54c-7.41,4.77-22.89,8.05-40.79,8.05s-33.37-3.28-40.79-8.05q-15.48.93-30.89,2.54c-20.3,91.1-30.52,176.4-27.1,263a681.91,681.91,0,0,0,197.56,0C507.09,445,496.87,359.69,476.56,268.59Z" transform="translate(-267.17 -2.5)"/>
    <path class="cls-2" d="M290.28,557.29c-11,0-20.12-6.27-22.45-14.66a15.37,15.37,0,0,0-.59,4.19c0,10.41,10.31,18.85,23,18.85s23.05-8.44,23.05-18.85a15.37,15.37,0,0,0-.59-4.19C310.41,551,301.25,557.29,290.28,557.29Z" transform="translate(-267.17 -2.5)"/>
  </g>
</svg>
