<?xml version="1.0" encoding="utf-8"?>
<!-- Generator: Adobe Illustrator 23.0.1, SVG Export Plug-In . SVG Version: 6.00 Build 0)  -->
<svg version="1.1" xmlns="http://www.w3.org/2000/svg" xmlns:xlink="http://www.w3.org/1999/xlink" x="0px" y="0px"
	 viewBox="0 0 1034.09 1034.5" style="enable-background:new 0 0 1034.09 1034.5;" xml:space="preserve">
<style type="text/css">
	.st0{fill:#FAFAFA;}
	.st1{fill:#FFC794;}
	.st2{fill:#CC9F76;}
	.st3{fill:#4D4D4D;}
	.st4{fill:#CCCCCC;}
	.st5{fill:#FBB03B;}
	.st6{fill:#1976D2;}
	.st7{opacity:0.69;fill:#CC9F76;}
	.st8{fill:#C2C2C2;}
	.st9{fill:#A8A8A8;}
	.st10{fill:#2196F3;}
</style>
<g id="Capa_13">
	<circle class="st0" cx="517.55" cy="517.75" r="517"/>
</g>
<g id="Inferior_normal">
	<path class="st1" d="M566.79,961.37l37.13-8.96l2.56-121.64l-2.56-135.73h-60.18c0,0,18.24,108.45,17.93,144.69
		C561.42,867.99,566.79,961.37,566.79,961.37z"/>
	<path class="st2" d="M550.9,735.9c-2.05-13.83-3.97-25.99-5.31-34.26c9.79-2.14,21.57-3.39,34.25-3.39
		c8.62,0,16.82,0.58,24.26,1.62l0.69,36.66c-7.63,1.1-16.07,1.72-24.95,1.72C569.38,738.25,559.53,737.4,550.9,735.9z"/>
	<path class="st2" d="M490.49,732.9c2.05-13.83,3.97-25.99,5.31-34.26c-9.79-2.14-21.57-3.39-34.25-3.39
		c-8.62,0-16.82,0.58-24.26,1.62l-0.69,36.66c7.63,1.1,16.07,1.72,24.95,1.72C472.01,735.25,481.86,734.4,490.49,732.9z"/>
	<path class="st3" d="M423.38,518.34l-7.68,197.19c0,0,35.42,6.36,47.38,6.4c12.55,0.04,49.78-6.4,49.78-6.4l4-64.02l7,64.02
		c0,0,33.05,6.37,44.22,6.4c11.63,0.03,46.1-6.4,46.1-6.4l-8.96-197.19H423.38z"/>
	<path class="st4" d="M462.7,724.49"/>
	<path class="st5" d="M488.68,821.17"/>
	<path class="st5" d="M488.68,827.83"/>
	<polygon class="st3" points="436.18,944.73 475.1,944.73 478.44,961.37 483.56,984.42 465.63,1008.75 436.18,1008.75 
		415.7,1008.75 423.38,976.74 	"/>
	<polygon class="st3" points="606.48,944.73 567.57,944.73 564.23,961.37 559.11,984.42 577.03,1008.75 606.48,1008.75 
		626.97,1008.75 619.29,976.74 	"/>
	<path class="st1" d="M461.55,735.25c-8.89,0-17.33-0.62-24.95-1.72l-1.69,89.56l2.56,121.64l37.13,8.96c0,0,5.37-93.38,5.12-121.64
		c-0.18-20.71,5.7-64.99,10.77-99.15C481.86,734.4,472.01,735.25,461.55,735.25z"/>
</g>
<g id="Superior_normal">
	<circle class="st1" cx="628.25" cy="565.88" r="23.05"/>
	<path class="st1" d="M646.46,350.91c0,0,5.55,90.62,4.83,121.49c-0.52,22.36-5.12,89.63-5.12,89.63l-47.38-12.8l-6.4-192.07
		L646.46,350.91z"/>
	<path class="st2" d="M628.25,580.54c10.97,0,20.13-6.27,22.46-14.67c0.37,1.35,0.59,2.75,0.59,4.19
		c0,10.41-10.32,18.86-23.05,18.86c-12.73,0-23.05-8.44-23.05-18.86c0-1.44,0.22-2.84,0.59-4.19
		C608.12,574.27,617.28,580.54,628.25,580.54z"/>
	<circle class="st1" cx="400.33" cy="565.88" r="23.05"/>
	<path class="st1" d="M382.12,350.91c0,0-5.55,90.62-4.83,121.49c0.52,22.36,5.12,89.63,5.12,89.63l47.38-12.8l6.4-192.07
		L382.12,350.91z"/>
	<path class="st6" d="M464.35,307.87c0-5.91,2.16-11.48,5.96-16.42c-23.59,0.04-47.17,1.65-70.6,4.84
		c-16.03,27.58-18.51,62.4-22.43,92.89c41.55,2,97.31,20.49,132.71-8.84c0.37-12.19,0.58-24.35,0.63-36.51
		C484.35,340.89,464.35,325.91,464.35,307.87z"/>
	<path class="st6" d="M564.4,307.87c0-5.91-2.16-11.48-5.96-16.42c23.59,0.04,47.17,1.65,70.6,4.84
		c16.03,27.58,18.51,62.4,22.43,92.89c-41.55,2-97.31,20.49-132.71-8.84c-0.37-12.19-0.58-24.35-0.63-36.51
		C544.4,340.89,564.4,325.91,564.4,307.87z"/>
	<path class="st1" d="M546.18,261.45c0-16.88,2.04-32.66,5.58-46.09h-69.37c3.54,13.43,5.58,29.2,5.58,46.09
		c0,22.64-3.67,43.28-9.7,58.93v4.13h78.83v-1.13C550.34,307.42,546.18,285.57,546.18,261.45z"/>
	<path class="st7" d="M552.36,220.82h-69.37c3.54,13.43,5.58,29.2,5.58,46.09c0,1.56-0.02,3.1-0.06,4.64
		c8.99,2.48,18.83,3.85,29.16,3.85c10.33,0,20.17-1.37,29.16-3.85c-0.03-1.54-0.05-3.08-0.05-4.64
		C546.78,250.02,548.82,234.25,552.36,220.82z"/>
	<path class="st8" d="M540.11,248.11h-24.86h-24.86c-13.67,0-26.1-5.59-35.12-14.61c-9.01-9.01-14.61-21.44-14.61-35.12
		c0,0,4.85-40.88,4.85-54.57s-4.85-54.57-4.85-54.57c0-13.67,5.59-26.1,14.61-35.12c2.76-2.76,35.8-25.45,39.97-26.73
		c3.05-0.94-6.44,20.78-4.85,18.19c4.33-7.06,34.63-22.57,46.09-19.4l-10.91,14.55l14.55-1.21c6.06,0,27.89-3.64,27.89-3.64
		s-7.26,4.12-3.64,9.7c1.42,2.18,6.78,5.12,10.86,8.54c9.01,9.01,14.61,21.44,14.61,35.12c0,0-3.64,40.9-3.64,54.57
		s3.64,54.57,3.64,54.57c0,13.67-5.59,26.1-14.61,35.12S553.79,248.11,540.11,248.11z"/>
	<path class="st9" d="M574.07,229.92c-9.01,9.01-15.77,6.06-27.89,3.64c0,0-21.53-9.6-30.32-9.7c-9-0.11-31.53,10.91-31.53,10.91
		c-13.34,2.43-18.88,1.74-27.89-7.28c-9.01-9.01-15.77-15.43-15.77-29.11c0,13.67,5.59,26.1,14.61,35.12
		c9.01,9.01,21.44,14.61,35.12,14.61h24.86h24.86c13.67,0,26.11-5.59,35.12-14.61c6.32-6.32,10.94-14.31,13.15-23.24
		C585.45,220.48,578.7,223.43,574.07,229.92z"/>
	<path class="st1" d="M534.41,193.53c0,0-11.42-6.03-16.12-6.06c-4.81-0.03-16.6,6.06-16.6,6.06h-5.44
		c-10.5,0-20.04-3.41-26.96-8.92c-6.92-5.5-11.21-13.09-11.21-21.44c0,0,3.72-24.95,3.72-33.32s-3.72-33.32-3.72-33.32
		c0-4.66,5.67-6.76,8.06-10.71c1.89-3.13,1.8-14.79,4.85-17.21c3.24-2.57,7.92,9,12.13,7.48c4.79-1.73,7.54-9.9,13.13-9.9
		l-4.64,12.34c0,0,12.51-13.54,16.98-11.13c2.13,1.15,0,9.7,0,9.7l25.47-10.75c5.25,0,16.98,14.38,15.18,2.23
		c-0.71-4.76,8.73,3.7,12.14,6.52c3.86,3.21,2.86,6.53,7.05,7.7c4.73,1.32,4.16,8.8,4.16,13.74c0,0-2.79,24.97-2.79,33.32
		s2.79,33.32,2.79,33.32c0,8.35-4.29,15.94-11.21,21.44C554.44,190.12,544.9,193.53,534.41,193.53z"/>
	<path class="st10" d="M586.61,291.84c-10.27-1.09-20.57-1.92-30.89-2.54c-7.41,4.77-22.89,8.05-40.79,8.05
		c-17.9,0-33.38-3.28-40.79-8.05c-10.32,0.62-20.62,1.45-30.89,2.54c-20.31,91.1-30.53,176.4-27.1,262.99
		c65.27,9.6,132.29,9.6,197.56,0C617.14,468.24,606.92,382.94,586.61,291.84z"/>
	<path class="st2" d="M400.33,580.54c-10.97,0-20.13-6.27-22.46-14.67c-0.37,1.35-0.59,2.75-0.59,4.19
		c0,10.41,10.32,18.86,23.05,18.86c12.73,0,23.05-8.44,23.05-18.86c0-1.44-0.22-2.84-0.59-4.19
		C420.46,574.27,411.3,580.54,400.33,580.54z"/>
</g>
</svg>
