<svg xmlns="http://www.w3.org/2000/svg" viewBox="0 0 802 990">
  <defs>
    <style>
      .cls-1 {
        fill: #603813;
      }

      .cls-2 {
        fill: #754c24;
      }

      .cls-3 {
        fill: #ffc794;
      }

      .cls-4, .cls-7 {
        fill: #cc9f76;
      }

      .cls-5 {
        fill: #4d4d4d;
      }

      .cls-6 {
        fill: #1976d2;
      }

      .cls-7 {
        opacity: 0.69;
      }

      .cls-8 {
        fill: #c2c2c2;
      }

      .cls-9 {
        fill: #a8a8a8;
      }

      .cls-10 {
        fill: #2196f3;
      }

      .cls-11 {
        fill: #e3b184;
      }

      .cls-12 {
        fill: #e6b385;
      }

      .cls-13 {
        fill: #ffc693;
      }
    </style>
  </defs>
  <title>person_stand_up</title>
  <g id="silla">
    <rect class="cls-1" x="476.3" y="719.18" width="27.68" height="206.57"/>
    <rect class="cls-1" x="307.43" y="719.18" width="27.68" height="206.57"/>
    <rect class="cls-2" x="284.59" y="732.17" width="245.41" height="33.21"/>
    <rect class="cls-2" x="287.59" y="739.18" width="27.68" height="226.82"/>
    <rect class="cls-2" x="498.73" y="739.18" width="27.68" height="226.82"/>
    <path class="cls-1" d="M528.9,732H285.1l31.8-50H497.1Z"/>
    <rect class="cls-2" x="315" y="430" width="184" height="26"/>
    <rect class="cls-2" x="315" y="430" width="20" height="258"/>
    <rect class="cls-2" x="479" y="430" width="20" height="258"/>
    <rect class="cls-2" x="397" y="430" width="20" height="258"/>
  </g>
  <g id="Inferior_normal" data-name="Inferior normal">
    <path class="cls-3" d="M456.74,938.12l37.13-9,2.56-121.64-2.56-135.73H433.69s18.25,108.45,17.93,144.69C451.37,844.74,456.74,938.12,456.74,938.12Z"/>
    <path class="cls-4" d="M440.85,712.65c-2.05-13.83-4-26-5.3-34.26A163.35,163.35,0,0,1,469.79,675a176.79,176.79,0,0,1,24.27,1.62l.69,36.66a176.23,176.23,0,0,1-25,1.72A171,171,0,0,1,440.85,712.65Z"/>
    <path class="cls-4" d="M380.44,709.65c2.06-13.83,4-26,5.31-34.26A163.45,163.45,0,0,0,351.5,672a176.53,176.53,0,0,0-24.26,1.62l-.69,36.66A176,176,0,0,0,351.5,712,170.82,170.82,0,0,0,380.44,709.65Z"/>
    <path class="cls-5" d="M313.33,495.09l-7.68,197.19s35.42,6.36,47.38,6.4c12.54,0,49.77-6.4,49.77-6.4l4-64,7,64s33,6.37,44.21,6.4c11.64,0,46.1-6.4,46.1-6.4l-9-197.19Z"/>
    <polygon class="cls-5" points="326.14 921.48 365.05 921.48 368.39 938.12 373.51 961.17 355.59 985.5 326.14 985.5 305.65 985.5 313.33 953.49 326.14 921.48"/>
    <polygon class="cls-5" points="496.44 921.48 457.52 921.48 454.18 938.12 449.06 961.17 466.98 985.5 496.44 985.5 516.92 985.5 509.24 953.49 496.44 921.48"/>
    <path class="cls-3" d="M351.5,712a176,176,0,0,1-24.95-1.72l-1.69,89.56,2.56,121.64,37.13,9s5.37-93.38,5.12-121.64c-.18-20.71,5.7-65,10.77-99.15A170.82,170.82,0,0,1,351.5,712Z"/>
  </g>
  <g id="Superior_levantado" data-name="Superior levantado">
    <path class="cls-6" d="M353.67,281.07a26.38,26.38,0,0,1,5.94-16.25,531.81,531.81,0,0,0-70.28,4.79c-16,27.29-18.43,61.73-22.33,91.88,41.36,2,96.87,20.27,132.1-8.74q.57-18.08.63-36.11C373.58,313.73,353.67,298.92,353.67,281.07Z"/>
    <path class="cls-6" d="M453.26,281.07a26.38,26.38,0,0,0-5.94-16.25,531.81,531.81,0,0,1,70.28,4.79c16,27.29,18.43,61.73,22.33,91.88-41.36,2-96.87,20.27-132.1-8.74q-.57-18.08-.63-36.11C433.35,313.73,453.26,298.92,453.26,281.07Z"/>
    <path class="cls-3" d="M435.12,235.15a180.25,180.25,0,0,1,5.55-45.59H371.62a180.25,180.25,0,0,1,5.55,45.59c0,22.39-3.65,42.81-9.65,58.3v4.08H446v-1.12C439.27,280.62,435.12,259,435.12,235.15Z"/>
    <path class="cls-7" d="M441.28,195H372.22a180.23,180.23,0,0,1,5.56,45.59q0,2.31-.06,4.59a112.5,112.5,0,0,0,58.06,0q-.06-2.28-.06-4.59A179.77,179.77,0,0,1,441.28,195Z"/>
    <path class="cls-8" d="M429.08,222H379.59a49.49,49.49,0,0,1-35-14.45,48.87,48.87,0,0,1-14.54-34.73s4.83-40.44,4.83-54-4.83-54-4.83-54a48.89,48.89,0,0,1,14.54-34.74c2.75-2.73,35.64-25.17,39.79-26.44,3-.93-6.41,20.55-4.83,18,4.31-7,34.47-22.33,45.87-19.19L414.6,16.81l14.48-1.2c6,0,27.77-3.6,27.77-3.6s-7.23,4.08-3.62,9.6c1.41,2.16,6.75,5.06,10.81,8.45A48.89,48.89,0,0,1,478.58,64.8s-3.62,40.46-3.62,54,3.62,54,3.62,54A48.87,48.87,0,0,1,464,207.5,49.49,49.49,0,0,1,429.08,222Z"/>
    <path class="cls-9" d="M462.89,204c-9,8.91-15.7,6-27.77,3.6,0,0-21.43-9.49-30.18-9.6-9-.11-31.39,10.8-31.39,10.8-13.28,2.4-18.79,1.71-27.76-7.2s-15.7-15.27-15.7-28.79a48.87,48.87,0,0,0,14.54,34.73,49.49,49.49,0,0,0,35,14.45h49.49a49.6,49.6,0,0,0,48.05-37.43C474.21,194.62,467.5,197.55,462.89,204Z"/>
    <path class="cls-3" d="M423.4,168s-11.36-6-16-6-16.52,6-16.52,6h-5.42a43.44,43.44,0,0,1-26.83-8.82c-6.89-5.44-11.16-13-11.16-21.21,0,0,3.71-24.68,3.71-32.95s-3.71-33-3.71-33c0-4.61,5.65-6.68,8-10.6,1.88-3.09,1.79-14.62,4.83-17,3.22-2.54,7.88,8.91,12.07,7.4,4.78-1.71,7.51-9.8,13.07-9.8l-4.62,12.21s12.46-13.39,16.91-11c2.12,1.15,0,9.6,0,9.6l25.35-10.63c5.22,0,16.9,14.23,15.11,2.2-.71-4.71,8.69,3.66,12.08,6.46,3.84,3.17,2.84,6.45,7,7.61,4.7,1.31,4.14,8.71,4.14,13.59,0,0-2.78,24.7-2.78,33s2.78,33,2.78,33c0,8.26-4.28,15.77-11.16,21.21A43.47,43.47,0,0,1,423.4,168Z"/>
    <path class="cls-10" d="M475.37,265.21q-15.33-1.6-30.75-2.51c-7.38,4.72-22.78,8-40.6,8s-33.23-3.24-40.61-8q-15.41.92-30.74,2.51c-20.22,90.12-30.39,174.5-27,260.15C353.74,514.42,374.3,532,403,538.91c39.7,9.52,58.87-25.85,99.31-13.55C505.76,439.71,495.58,355.33,475.37,265.21Z"/>
    <path class="cls-11" d="M538.44,404.29s-88.38-7.13-118.22-11.63c-21.61-3.26-86.3-15.49-86.3-15.49l17.42-36L538.1,360.5Z"/>
    <ellipse class="cls-12" cx="336.7" cy="359.07" rx="22.08" ry="21.94"/>
    <path class="cls-4" d="M322.38,357.48C321,368.23,325.94,378,333.92,381.4a15.21,15.21,0,0,1-4.21,0c-10.28-1.35-17.27-12.57-15.6-25.05s11.34-21.51,21.61-20.15a15.35,15.35,0,0,1,4.06,1.12C331.19,338.56,323.81,346.72,322.38,357.48Z"/>
    <path class="cls-3" d="M269.25,362s88.17-9.29,118.34-10.37c21.84-.78,87.69-.69,87.69-.69l-10.39,38.62-187.13,15.4Z"/>
    <ellipse class="cls-13" cx="472.98" cy="363.23" rx="22.08" ry="21.94"/>
    <path class="cls-4" d="M477.52,382.56c10.85-1.17,19.24-8.32,20.64-16.83a15.44,15.44,0,0,1,1,4.06c1.12,10.24-8.18,19.65-20.78,21S454.7,385,453.58,374.72a15.37,15.37,0,0,1,.14-4.18C456.93,378.55,466.67,383.73,477.52,382.56Z"/>
  </g>
</svg>
