<?xml version="1.0" encoding="utf-8"?>
<!-- Generator: Adobe Illustrator 23.0.1, SVG Export Plug-In . SVG Version: 6.00 Build 0)  -->
<svg version="1.1" xmlns="http://www.w3.org/2000/svg" xmlns:xlink="http://www.w3.org/1999/xlink" x="0px" y="0px"
	 viewBox="0 0 1069 1068" style="enable-background:new 0 0 1069 1068;" xml:space="preserve">
<style type="text/css">
	.st0{fill:#F2F2F2;}
	.st1{fill:#FFC794;}
	.st2{fill:#CC9F76;}
	.st3{fill:#4D4D4D;}
	.st4{fill:#CCCCCC;}
	.st5{fill:#FBB03B;}
	.st6{fill:#1976D2;}
	.st7{opacity:0.69;fill:#CC9F76;}
	.st8{fill:#C2C2C2;}
	.st9{fill:#A8A8A8;}
	.st10{fill:#2196F3;}
	.st11{fill:#666666;}
	.st12{fill:#1A1A1A;stroke:#000000;stroke-miterlimit:10;}
	.st13{fill:#4D4D4D;stroke:#000000;stroke-miterlimit:10;}
	.st14{fill:none;stroke:#333333;stroke-linecap:round;stroke-miterlimit:10;}
	.st15{fill:#ED1C24;}
</style>
<g id="Capa_14">
	<circle class="st0" cx="535" cy="534" r="534"/>
</g>
<g id="Inferior_normal">
	<path class="st1" d="M582.74,977.12l37.13-8.96l2.56-121.64l-2.56-135.73h-60.18c0,0,18.24,108.45,17.93,144.69
		C577.37,883.74,582.74,977.12,582.74,977.12z"/>
	<path class="st2" d="M566.85,751.65c-2.05-13.83-3.97-25.99-5.31-34.26c9.79-2.14,21.57-3.39,34.25-3.39
		c8.62,0,16.82,0.58,24.26,1.62l0.69,36.66c-7.63,1.1-16.07,1.72-24.95,1.72C585.33,754,575.48,753.15,566.85,751.65z"/>
	<path class="st2" d="M506.44,748.65c2.05-13.83,3.97-25.99,5.31-34.26c-9.79-2.14-21.57-3.39-34.25-3.39
		c-8.62,0-16.82,0.58-24.26,1.62l-0.69,36.66c7.63,1.1,16.07,1.72,24.95,1.72C487.97,751,497.82,750.15,506.44,748.65z"/>
	<path class="st3" d="M439.33,534.09l-7.68,197.19c0,0,35.42,6.36,47.38,6.4c12.55,0.04,49.78-6.4,49.78-6.4l4-64.02l7,64.02
		c0,0,33.05,6.37,44.22,6.4c11.63,0.03,46.1-6.4,46.1-6.4l-8.96-197.19H439.33z"/>
	<path class="st4" d="M478.65,740.24"/>
	<path class="st5" d="M504.63,836.92"/>
	<path class="st5" d="M504.63,843.57"/>
	<polygon class="st3" points="452.14,960.48 491.05,960.48 494.39,977.12 499.51,1000.17 481.59,1024.5 452.14,1024.5 
		431.65,1024.5 439.33,992.49 	"/>
	<polygon class="st3" points="622.43,960.48 583.52,960.48 580.18,977.12 575.06,1000.17 592.98,1024.5 622.43,1024.5 
		642.92,1024.5 635.24,992.49 	"/>
	<path class="st1" d="M477.5,751c-8.89,0-17.33-0.62-24.95-1.72l-1.69,89.56l2.56,121.64l37.13,8.96c0,0,5.37-93.38,5.12-121.64
		c-0.18-20.71,5.7-64.99,10.77-99.15C497.82,750.15,487.97,751,477.5,751z"/>
</g>
<g id="Superior_normal">
	<circle class="st1" cx="644.2" cy="581.63" r="23.05"/>
	<path class="st1" d="M662.42,366.66c0,0,5.55,90.62,4.83,121.49c-0.52,22.36-5.12,89.63-5.12,89.63l-47.38-12.8l-6.4-192.07
		L662.42,366.66z"/>
	<path class="st2" d="M644.2,596.29c10.97,0,20.13-6.27,22.46-14.67c0.37,1.35,0.59,2.75,0.59,4.19c0,10.41-10.32,18.86-23.05,18.86
		c-12.73,0-23.05-8.44-23.05-18.86c0-1.44,0.22-2.84,0.59-4.19C624.08,590.02,633.24,596.29,644.2,596.29z"/>
	<circle class="st1" cx="416.28" cy="581.63" r="23.05"/>
	<path class="st1" d="M398.07,366.66c0,0-5.55,90.62-4.83,121.49c0.52,22.36,5.12,89.63,5.12,89.63l47.38-12.8l6.4-192.07
		L398.07,366.66z"/>
	<path class="st6" d="M480.31,323.62c0-5.91,2.16-11.48,5.96-16.42c-23.59,0.04-47.17,1.65-70.6,4.84
		c-16.03,27.58-18.51,62.4-22.43,92.89c41.55,2,97.31,20.49,132.71-8.84c0.37-12.19,0.58-24.35,0.63-36.51
		C500.31,356.64,480.31,341.66,480.31,323.62z"/>
	<path class="st6" d="M580.35,323.62c0-5.91-2.16-11.48-5.96-16.42c23.59,0.04,47.17,1.65,70.6,4.84
		c16.03,27.58,18.51,62.4,22.43,92.89c-41.55,2-97.31,20.49-132.71-8.84c-0.37-12.19-0.58-24.35-0.63-36.51
		C560.35,356.64,580.35,341.66,580.35,323.62z"/>
	<path class="st1" d="M562.13,277.2c0-16.88,2.04-32.66,5.58-46.09h-69.37c3.54,13.43,5.58,29.2,5.58,46.09
		c0,22.64-3.67,43.28-9.7,58.93v4.13h78.83v-1.13C566.3,323.17,562.13,301.32,562.13,277.2z"/>
	<path class="st7" d="M568.32,236.57h-69.37c3.54,13.43,5.58,29.2,5.58,46.09c0,1.56-0.02,3.1-0.06,4.64
		c8.99,2.48,18.83,3.85,29.16,3.85c10.33,0,20.17-1.37,29.16-3.85c-0.03-1.54-0.05-3.08-0.05-4.64
		C562.74,265.77,564.78,250,568.32,236.57z"/>
	<path class="st8" d="M556.07,263.86H531.2h-24.86c-13.67,0-26.1-5.59-35.12-14.61c-9.01-9.01-14.61-21.44-14.61-35.12
		c0,0,4.85-40.88,4.85-54.57s-4.85-54.57-4.85-54.57c0-13.67,5.59-26.1,14.61-35.12c2.76-2.76,35.8-25.45,39.97-26.73
		c3.05-0.94-6.44,20.78-4.85,18.19c4.33-7.06,34.63-22.57,46.09-19.4l-10.91,14.55l14.55-1.21c6.06,0,27.89-3.64,27.89-3.64
		s-7.26,4.12-3.64,9.7c1.42,2.18,6.78,5.12,10.86,8.54c9.01,9.01,14.61,21.44,14.61,35.12c0,0-3.64,40.9-3.64,54.57
		s3.64,54.57,3.64,54.57c0,13.67-5.59,26.1-14.61,35.12C582.17,258.26,569.74,263.86,556.07,263.86z"/>
	<path class="st9" d="M590.02,245.67c-9.01,9.01-15.77,6.06-27.89,3.64c0,0-21.53-9.6-30.32-9.7c-9-0.11-31.53,10.91-31.53,10.91
		c-13.34,2.43-18.88,1.74-27.89-7.28c-9.01-9.01-15.77-15.43-15.77-29.11c0,13.67,5.59,26.1,14.61,35.12
		c9.01,9.01,21.44,14.61,35.12,14.61h24.86h24.86c13.67,0,26.11-5.59,35.12-14.61c6.32-6.32,10.94-14.31,13.15-23.24
		C601.4,236.23,594.65,239.18,590.02,245.67z"/>
	<path class="st1" d="M550.36,209.28c0,0-11.42-6.03-16.12-6.06c-4.81-0.03-16.6,6.06-16.6,6.06h-5.44
		c-10.5,0-20.04-3.41-26.96-8.92c-6.92-5.5-11.21-13.09-11.21-21.44c0,0,3.72-24.95,3.72-33.32c0-8.36-3.72-33.32-3.72-33.32
		c0-4.66,5.67-6.76,8.06-10.71c1.89-3.13,1.8-14.79,4.85-17.21c3.24-2.57,7.92,9,12.13,7.48c4.79-1.73,7.54-9.9,13.13-9.9
		l-4.64,12.34c0,0,12.51-13.54,16.98-11.13c2.13,1.15,0,9.7,0,9.7L550,82.11c5.25,0,16.98,14.38,15.18,2.23
		c-0.71-4.76,8.73,3.7,12.14,6.52c3.86,3.21,2.86,6.53,7.05,7.7c4.73,1.32,4.16,8.8,4.16,13.74c0,0-2.79,24.97-2.79,33.32
		s2.79,33.32,2.79,33.32c0,8.35-4.29,15.94-11.21,21.44C570.4,205.87,560.86,209.28,550.36,209.28z"/>
	<path class="st10" d="M602.56,307.59c-10.27-1.09-20.57-1.92-30.89-2.54c-7.41,4.77-22.89,8.05-40.79,8.05s-33.38-3.28-40.79-8.05
		c-10.32,0.62-20.62,1.45-30.89,2.54c-20.31,91.1-30.53,176.4-27.1,262.99c65.27,9.6,132.29,9.6,197.56,0
		C633.09,483.99,622.87,398.69,602.56,307.59z"/>
	<path class="st2" d="M416.28,596.29c-10.97,0-20.13-6.27-22.46-14.67c-0.37,1.35-0.59,2.75-0.59,4.19
		c0,10.41,10.32,18.86,23.05,18.86c12.73,0,23.05-8.44,23.05-18.86c0-1.44-0.22-2.84-0.59-4.19
		C436.41,590.02,427.25,596.29,416.28,596.29z"/>
</g>
<g id="Capa_13">
	<path class="st11" d="M624,402H443c-2.75,0-5-2.25-5-5v-13c0-2.75,2.25-5,5-5h181c2.75,0,5,2.25,5,5v13
		C629,399.75,626.75,402,624,402z"/>
	<path class="st12" d="M551.5,430.5h-35c-2.75,0-5-2.25-5-5v-70c0-2.75,2.25-5,5-5h35c2.75,0,5,2.25,5,5v70
		C556.5,428.25,554.25,430.5,551.5,430.5z"/>
	<path class="st13" d="M548.69,425.5h-29.38c-2.75,0-5-2.25-5-5v-60c0-2.75,2.25-5,5-5h29.38c2.75,0,5,2.25,5,5v60
		C553.69,423.25,551.44,425.5,548.69,425.5z"/>
	<line class="st14" x1="527.5" y1="352.5" x2="541.5" y2="352.5"/>
	<path class="st6" d="M667.42,403.93c-3.92-30.48-6.4-65.3-22.43-92.89c-14.06-1.92-28.19-3.25-42.33-4.03
		c7.74,34.77,14.01,68.69,18.61,102.17C637.39,407.21,653.23,404.61,667.42,403.93z"/>
	<path class="st6" d="M393.65,403.93c3.92-30.48,6.4-65.3,22.43-92.89c14.06-1.92,28.19-3.25,42.33-4.03
		c-7.74,34.77-14.01,68.69-18.61,102.17C423.69,407.21,407.84,404.61,393.65,403.93z"/>
	<circle class="st15" cx="525" cy="353" r="1"/>
</g>
</svg>
