<?xml version="1.0" encoding="utf-8"?>
<!-- Generator: Adobe Illustrator 23.0.1, SVG Export Plug-In . SVG Version: 6.00 Build 0)  -->
<svg version="1.1" id="Capa_1" xmlns="http://www.w3.org/2000/svg" xmlns:xlink="http://www.w3.org/1999/xlink" x="0px" y="0px"
	 viewBox="0 0 200 200" style="enable-background:new 0 0 200 200;" xml:space="preserve">
<style type="text/css">
	.st0{fill:#388E3C;}
	.st1{fill:none;stroke:#388E3C;stroke-width:5;stroke-linecap:round;stroke-miterlimit:10;}
	.st2{fill:none;stroke:#388E3C;stroke-width:2.5;stroke-miterlimit:10;}
</style>
<path class="st0" d="M2,84.61c0.04,19.07,15.54,34.5,34.61,34.46s34.5-15.54,34.46-34.61L2,84.61z"/>
<circle class="st0" cx="100.37" cy="8.67" r="7.4"/>
<g>
	<path class="st0" d="M94.88,189.61c-2.09-0.45-3.16-0.91-4.09-1.36c-0.85-0.45-1.3-0.91-1.45-1.36c-0.12-0.45-0.02-0.91-0.04-1.36
		l0.02-1.36l0.07-5.43l0.14-10.86l0.42-21.73c0.36-14.49,0.75-28.97,1.34-43.46c0.27-7.24,0.6-14.49,0.95-21.73l1.15-21.73
		c0.93-14.49,1.81-28.97,3.23-43.46c0.18-1.8,1.78-3.12,3.58-2.94c1.59,0.16,2.8,1.42,2.94,2.94c1.42,14.49,2.3,28.97,3.23,43.46
		l1.15,21.73c0.35,7.24,0.68,14.49,0.95,21.73c0.59,14.49,0.98,28.97,1.34,43.46l0.42,21.73l0.14,10.86l0.07,5.43l0.02,1.36
		c-0.02,0.45,0.07,0.91-0.04,1.36c-0.15,0.45-0.61,0.91-1.45,1.36c-0.93,0.45-2,0.91-4.09,1.36
		C101.52,190.34,98.05,190.28,94.88,189.61z"/>
</g>
<path class="st0" d="M158.43,199H42.5c-3.57,0-6.5-2.93-6.5-6.5v-1.97c0-3.57,2.92-6.5,6.5-6.5h115.93c3.57,0,6.5,2.92,6.5,6.5v1.97
	C164.93,196.07,162,199,158.43,199z"/>
<line class="st1" x1="22.5" y1="31" x2="177.5" y2="31"/>
<line class="st2" x1="36.5" y1="32.5" x2="5.5" y2="86.5"/>
<line class="st2" x1="68.5" y1="85.5" x2="36.5" y2="32.5"/>
<path class="st0" d="M130,84.15c0.04,19.07,15.54,34.5,34.61,34.46c19.07-0.04,34.5-15.54,34.46-34.61L130,84.15z"/>
<line class="st2" x1="164.5" y1="32.04" x2="133.5" y2="86.04"/>
<line class="st2" x1="196.5" y1="85.04" x2="164.5" y2="32.04"/>
</svg>
