<?xml version="1.0" encoding="utf-8"?>
<!-- Generator: Adobe Illustrator 23.0.1, SVG Export Plug-In . SVG Version: 6.00 Build 0)  -->
<svg version="1.1" id="Capa_1" xmlns="http://www.w3.org/2000/svg" xmlns:xlink="http://www.w3.org/1999/xlink" x="0px" y="0px"
	 viewBox="0 0 200 200" style="enable-background:new 0 0 200 200;" xml:space="preserve">
<style type="text/css">
	.st0{fill:#388E3C;}
	.st1{fill:none;stroke:#388E3C;stroke-width:5;stroke-linecap:round;stroke-miterlimit:10;}
	.st2{fill:none;stroke:#388E3C;stroke-width:2.5;stroke-miterlimit:10;}
</style>
<g>
	<path class="st0" d="M58.96,94.49c-3.82,8.57-12.4,14.56-22.37,14.58l-0.05,0h0c-9.94,0-18.53-5.96-22.38-14.49L58.96,94.49
		 M71.07,84.46L2,84.61c0.04,19.04,15.5,34.46,34.54,34.46c0.03,0,0.05,0,0.07,0C55.68,119.03,71.11,103.53,71.07,84.46L71.07,84.46
		z"/>
</g>
<path class="st0" d="M158.43,199H42.5c-3.57,0-6.5-2.93-6.5-6.5v-1.97c0-3.57,2.92-6.5,6.5-6.5h115.93c3.57,0,6.5,2.92,6.5,6.5v1.97
	C164.93,196.07,162,199,158.43,199z"/>
<line class="st1" x1="22.5" y1="31" x2="177.5" y2="31"/>
<line class="st2" x1="36.5" y1="32.5" x2="5.5" y2="86.5"/>
<line class="st2" x1="68.5" y1="85.5" x2="36.5" y2="32.5"/>
<g>
	<path class="st0" d="M186.96,94.03c-3.82,8.57-12.4,14.56-22.37,14.58l-0.05,0h0c-9.94,0-18.53-5.96-22.38-14.49L186.96,94.03
		 M199.07,84L130,84.15c0.04,19.04,15.5,34.46,34.54,34.46c0.03,0,0.05,0,0.07,0C183.68,118.57,199.11,103.07,199.07,84L199.07,84z"
		/>
</g>
<line class="st2" x1="164.5" y1="32.04" x2="133.5" y2="86.04"/>
<line class="st2" x1="196.5" y1="85.04" x2="164.5" y2="32.04"/>
<path class="st0" d="M92.52,183.68V15.72c0-5.17,2.93-9.42,6.5-9.42h1.97c3.57,0,6.5,4.23,6.5,9.42v167.97
	c0,5.17-2.92,9.42-6.5,9.42h-1.97C95.45,193.1,92.52,188.86,92.52,183.68z"/>
</svg>
