<?xml version="1.0" encoding="utf-8"?>
<!-- Generator: Adobe Illustrator 23.0.1, SVG Export Plug-In . SVG Version: 6.00 Build 0)  -->
<svg version="1.1" id="Capa_1" xmlns="http://www.w3.org/2000/svg" xmlns:xlink="http://www.w3.org/1999/xlink" x="0px" y="0px"
	 viewBox="0 0 200 200" style="enable-background:new 0 0 200 200;" xml:space="preserve">
<style type="text/css">
	.st0{fill:none;stroke:#FFFFFF;stroke-width:8;stroke-miterlimit:10;}
	.st1{fill:#FFFFFF;stroke:#FFFFFF;stroke-miterlimit:10;}
	.st2{fill:#FFFFFF;stroke:#FFFFFF;stroke-width:15;stroke-linecap:round;stroke-miterlimit:10;}
</style>
<path class="st0" d="M149.41,123.12H47.09c-5.5,0-10-4.5-10-10v-0.82c0-5.5,4.5-10,10-10h102.32c5.5,0,10,4.5,10,10v0.82
	C159.41,118.62,154.91,123.12,149.41,123.12z"/>
<g>
	<path class="st1" d="M138.54,13c0.01,0,0.01,0.01,0.02,0.01l0,0l0.01,80.06c-0.01,0.01-0.03,0.03-0.01,0.04H58.5
		c-0.01-0.01-0.02-0.02-0.03-0.02l0,0l-0.01-80.06c0.01-0.01,0.03-0.03,0.01-0.04L138.54,13 M138.56,1h-80.1c-6.6,0-12,5.4-12,12
		v80.1c0,6.6,5.4,12,12,12h80.1c6.6,0,12-5.4,12-12V13C150.56,6.4,145.16,1,138.56,1L138.56,1z"/>
</g>
<line class="st2" x1="46.46" y1="128" x2="46.46" y2="191.5"/>
<line class="st2" x1="150.56" y1="128" x2="150.56" y2="191.5"/>
</svg>
