<?xml version="1.0" encoding="utf-8"?>
<!-- Generator: Adobe Illustrator 23.0.1, SVG Export Plug-In . SVG Version: 6.00 Build 0)  -->
<svg version="1.1" id="Capa_1" xmlns="http://www.w3.org/2000/svg" xmlns:xlink="http://www.w3.org/1999/xlink" x="0px" y="0px"
	 viewBox="0 0 200 200" style="enable-background:new 0 0 200 200;" xml:space="preserve">
<style type="text/css">
	.st0{fill:#7C4DFF;}
	.st1{fill:none;stroke:#7C4DFF;stroke-width:8;stroke-linecap:round;stroke-miterlimit:10;}
	.st2{fill:none;stroke:#7C4DFF;stroke-width:6;stroke-linecap:round;stroke-miterlimit:10;}
</style>
<g>
	<path class="st0" d="M100.5,35.22c49.9,0,90.5,40.6,90.5,90.5c0,13.07-2.72,25.62-8.08,37.39l-164.71,0.28
		C12.76,151.55,10,138.9,10,125.72C10,75.82,50.6,35.22,100.5,35.22 M100.5,27.22c-54.4,0-98.5,44.1-98.5,98.5
		c0,16.49,4.07,32.02,11.24,45.68l174.68-0.3c7.07-13.58,11.08-29.01,11.08-45.38C199,71.32,154.9,27.22,100.5,27.22L100.5,27.22z"
		/>
</g>
<g>
	<path class="st0" d="M100.5,137c2.26,0,4.09,1.84,4.09,4.09c0,2.26-1.84,4.09-4.09,4.09s-4.09-1.84-4.09-4.09
		C96.41,138.83,98.24,137,100.5,137 M100.5,132c-5.02,0-9.09,4.07-9.09,9.09s4.07,9.09,9.09,9.09s9.09-4.07,9.09-9.09
		S105.52,132,100.5,132L100.5,132z"/>
</g>
<line class="st1" x1="106.56" y1="135.03" x2="157.33" y2="84.26"/>
<path class="st2" d="M130.45,58.27c3.88,1.8,7.57,3.94,11.04,6.38"/>
<path class="st2" d="M70.54,58.27c9.11-4.23,19.26-6.59,29.96-6.59c10.7,0,20.85,2.36,29.95,6.58"/>
<path class="st2" d="M42.22,81.96c7.16-10.18,16.92-18.39,28.32-23.68"/>
<path class="st2" d="M40.05,85.23c0.69-1.11,1.42-2.2,2.17-3.27"/>
<path class="st2" d="M31.12,106.72c0.23-1.01,0.49-2.01,0.77-3"/>
<path class="st2" d="M31.15,139.2c-1.22-5.23-1.87-10.69-1.87-16.3c0-5.57,0.64-10.98,1.85-16.18"/>
<path class="st2" d="M102.89,77.51c6,0.31,11.69,1.79,16.85,4.2"/>
<path class="st2" d="M56.98,136.08c-1.26-4.17-1.94-8.59-1.94-13.17c0-13.63,6-25.85,15.49-34.19"/>
<path class="st2" d="M108.19,106.58c-2.98-1.76-6.45-2.77-10.17-2.77c-11.06,0-20.03,8.97-20.03,20.03c0,3.21,0.75,6.24,2.09,8.92"
	/>
</svg>
