<?xml version="1.0" encoding="utf-8"?>
<!-- Generator: Adobe Illustrator 23.0.1, SVG Export Plug-In . SVG Version: 6.00 Build 0)  -->
<svg version="1.1" id="Capa_2" xmlns="http://www.w3.org/2000/svg" xmlns:xlink="http://www.w3.org/1999/xlink" x="0px" y="0px"
	 viewBox="0 0 1170 999.62" style="enable-background:new 0 0 1170 999.62;" xml:space="preserve">
<style type="text/css">
	.st0{fill:#333333;}
</style>
<path class="st0" d="M503.16,580.11l-236.21,282.6c-25.13,30.07,0.73,56.61,31.47,32.29l287.86-227.64
	c18.93-0.82,37.64-8.31,52.29-22.55c31.68-30.8,32.39-81.45,1.59-113.13c-30.8-31.68-81.45-32.39-113.13-1.59
	C512.8,543.94,504.84,561.78,503.16,580.11z M603.6,567.24c11.16,11.48,10.91,29.84-0.58,41.01s-29.84,10.91-41.01-0.58
	c-11.16-11.48-10.91-29.84,0.58-41.01C574.07,555.5,592.43,555.76,603.6,567.24z"/>
</svg>
