<?xml version="1.0" encoding="utf-8"?>
<!-- Generator: Adobe Illustrator 23.0.1, SVG Export Plug-In . SVG Version: 6.00 Build 0)  -->
<svg version="1.1" xmlns="http://www.w3.org/2000/svg" xmlns:xlink="http://www.w3.org/1999/xlink" x="0px" y="0px"
	 viewBox="0 0 1170 999.62" style="enable-background:new 0 0 1170 999.62;" xml:space="preserve">
<style type="text/css">
	.st0{display:none;}
	.st1{display:inline;}
	.st2{clip-path:url(#SVGID_2_);}
	.st3{fill:#4CAF50;}
	.st4{fill:#C0CA33;}
	.st5{fill:#FF6D00;}
	.st6{fill:#D32F2F;}
</style>
<g id="Capa_1" class="st0">
	<g class="st1">
		<g>
			<defs>
				<path id="SVGID_1_" d="M217,585c0-203.24,164.76-368,368-368s368,164.76,368,368c0,101.37-40.99,193.16-107.29,259.71
					l149.91,149.91C1100.28,889.7,1165,744.91,1165,585C1165,264.67,905.33,5,585,5S5,264.67,5,585
					c0,159.91,64.72,304.7,169.38,409.62l149.91-149.91C257.99,778.16,217,686.37,217,585z"/>
			</defs>
			<clipPath id="SVGID_2_">
				<use xlink:href="#SVGID_1_"  style="overflow:visible;"/>
			</clipPath>
			<g class="st2">
			</g>
		</g>
	</g>
</g>
<g id="Capa_3">
	<path class="st3" d="M952.94,578.55c0.04,2.15,0.06,4.29,0.06,6.45c0,101.37-40.99,193.16-107.29,259.71l149.91,149.91
		C1100.28,889.7,1165,744.91,1165,585c0-2.72-0.04-5.43-0.08-8.14L952.94,578.55z"/>
	<path class="st4" d="M808.96,49.83l-82.56,195.32c131.19,54.64,223.96,183.03,226.55,333.4l211.98-1.69
		C1161.65,339.42,1015.72,136.46,808.96,49.83z"/>
	<path class="st5" d="M585,5C427.93,5,285.45,67.44,181.01,168.85l148.03,151.76C395.27,256.47,485.52,217,585,217
		c50.1,0,97.86,10.02,141.39,28.15l82.56-195.32C740.05,20.96,664.39,5,585,5z"/>
	<path class="st6" d="M6,586c0,159.15,64.11,303.31,167.89,408.11L323.8,844.2C258.38,777.77,218,686.6,218,586
		c0-103.76,42.95-197.49,112.04-264.39L182.01,169.85C73.46,275.25,6,422.74,6,586z"/>
</g>
</svg>
