<?xml version="1.0" encoding="utf-8"?>
<!-- Generator: Adobe Illustrator 23.0.1, SVG Export Plug-In . SVG Version: 6.00 Build 0)  -->
<svg version="1.1" id="Capa_2" xmlns="http://www.w3.org/2000/svg" xmlns:xlink="http://www.w3.org/1999/xlink" x="0px" y="0px"
	 viewBox="0 0 405.98 397.06" style="enable-background:new 0 0 405.98 397.06;" xml:space="preserve">
<style type="text/css">
	.st0{fill:#333333;}
</style>
<path class="st0" d="M246.34,72.65L10.13,355.26c-25.13,30.07,0.73,56.61,31.47,32.29l287.86-227.64
	c18.93-0.82,37.64-8.31,52.29-22.55c31.68-30.8,32.39-81.45,1.59-113.13s-81.45-32.39-113.13-1.59
	C255.98,36.48,248.02,54.32,246.34,72.65z M346.77,59.78c11.16,11.48,10.91,29.84-0.58,41.01c-11.48,11.16-29.84,10.91-41.01-0.58
	c-11.16-11.48-10.91-29.84,0.58-41.01C317.25,48.04,335.61,48.3,346.77,59.78z"/>
</svg>
