<?xml version="1.0" encoding="utf-8"?>
<!-- Generator: Adobe Illustrator 23.0.1, SVG Export Plug-In . SVG Version: 6.00 Build 0)  -->
<svg version="1.1" xmlns="http://www.w3.org/2000/svg" xmlns:xlink="http://www.w3.org/1999/xlink" x="0px" y="0px"
	 viewBox="0 0 1245 1242" style="enable-background:new 0 0 1245 1242;" xml:space="preserve">
<style type="text/css">
	.st0{fill:#F2F2F2;}
	.st1{fill:#7F47DD;stroke:#000000;stroke-miterlimit:10;}
</style>
<g id="Capa_3">
	<circle class="st0" cx="624" cy="621" r="621"/>
</g>
<g id="Capa_2">
	<polygon class="st1" points="571.5,400.61 571.5,849.62 592.5,935.39 592.5,314.85 	"/>
	<path class="st1" d="M961.5,508.36L961.5,508.36c-3.9,5.59-7.93,9.22-12,11.13v211.26c4.06,1.91,8.1,5.54,12,11.13
		c2.63,3.25,5.74,5.4,9,6.54V501.82C967.23,502.96,964.12,505.11,961.5,508.36z"/>
	<polygon class="st1" points="109.5,613.11 109.5,637.12 130.5,639.52 130.5,610.71 	"/>
	<path class="st1" d="M543.9,513.35c-2.31,9.42-7.91,15.49-14.4,18.09V718.8c6.49,2.59,12.09,8.67,14.4,18.09l6.6,26.96V486.38
		L543.9,513.35z"/>
	<path class="st1" d="M790.1,464.03l-6.85,10.27c-0.57,0.86-1.16,1.69-1.76,2.51v296.61c0.6,0.82,1.19,1.65,1.76,2.51l6.85,10.27
		c3.73,5.6,7.9,10.42,12.4,14.48V449.55C798.01,453.61,793.83,458.44,790.1,464.03z"/>
	<path class="st1" d="M995.62,516.88c-0.98-3.11-2.4-5.8-4.12-8.05V741.4c1.72-2.25,3.14-4.94,4.12-8.05l16.88-53.65V570.53
		L995.62,516.88z"/>
	<path class="st1" d="M501.31,516.37l-13.81-38.78v295.05l13.81-38.78c1.69-4.76,4.21-8.45,7.19-11.14V527.51
		C505.52,524.82,503,521.13,501.31,516.37z"/>
	<polygon class="st1" points="67.5,617.91 67.5,632.32 88.5,634.72 88.5,615.51 	"/>
	<path class="st1" d="M613.5,276.47v697.28c7.67,1.78,16.08-1.45,21-9.81V286.29C629.58,277.93,621.17,274.69,613.5,276.47z"/>
	<path class="st1" d="M823.5,436.72v376.79c6.83,2.5,13.93,3.69,21,3.58V433.13C837.43,433.03,830.33,434.22,823.5,436.72z"/>
	<path class="st1" d="M697.5,480.56v289.1c6.04-7.12,13.25-12.4,21-15.71V496.27C710.75,492.96,703.54,487.68,697.5,480.56z"/>
	<path class="st1" d="M739.5,500.36v249.5c7.13,0.18,14.26,1.92,21,5.31V495.06C753.76,498.44,746.63,500.19,739.5,500.36z"/>
	<polygon class="st1" points="655.5,356.32 655.5,893.91 676.5,820.7 676.5,429.53 	"/>
	<path class="st1" d="M865.5,437.37v375.49c7.5-2.99,14.62-7.56,21-13.68V451.05C880.12,444.93,873,440.36,865.5,437.37z"/>
	<path class="st1" d="M916.24,498.47l-8.74-16.22v285.73l8.74-16.22c3.76-6.97,7.9-12.57,12.26-16.46V514.92
		C924.14,511.03,920,505.44,916.24,498.47z"/>
	<polygon class="st1" points="1033.5,598.48 1033.5,651.75 1054.5,649.07 1054.5,601.16 	"/>
	<polygon class="st1" points="151.5,608.31 151.5,641.92 172.5,644.32 172.5,605.91 	"/>
	<polygon class="st1" points="25.5,622.71 25.5,627.52 46.5,629.92 46.5,620.31 	"/>
	<polygon class="st1" points="1245.5,624.62 1243.5,624.62 1243.5,624.88 	"/>
	<polygon class="st1" points="361.5,391.98 361.5,858.25 382.5,799.04 382.5,451.19 	"/>
	<path class="st1" d="M319.5,353.52v543.2c6.73,3.11,14.39,2.89,21-0.66V354.18C333.89,350.62,326.23,350.41,319.5,353.52z"/>
	<path class="st1" d="M403.5,485.08v280.06c7.16-2.41,15.19-0.55,21,5.57V479.51C418.69,485.63,410.66,487.49,403.5,485.08z"/>
	<polygon class="st1" points="1159.5,614.6 1159.5,635.63 1180.5,632.94 1180.5,617.29 	"/>
	<polygon class="st1" points="193.5,603.51 193.5,646.72 214.5,649.13 214.5,601.11 	"/>
	<polygon class="st1" points="1245.5,625.61 1243.5,625.35 1243.5,625.61 	"/>
	<polygon class="st1" points="277.5,455.17 277.5,795.06 298.5,860.26 298.5,389.97 	"/>
	<polygon class="st1" points="235.5,585.56 235.5,664.67 256.5,729.86 256.5,520.37 	"/>
	<polygon class="st1" points="1201.5,619.98 1201.5,630.25 1222.5,627.57 1222.5,622.66 	"/>
	<polygon class="st1" points="0.15,624.62 4.46,625.12 0.15,625.61 4.5,625.61 4.5,624.62 	"/>
	<path class="st1" d="M445.5,445.1v360.03c6.49,3.99,14.19,4.53,21,1.6V443.51C459.69,440.57,451.99,441.11,445.5,445.1z"/>
	<polygon class="st1" points="1075.5,603.85 1075.5,646.38 1096.5,643.69 1096.5,606.54 	"/>
	<polygon class="st1" points="1117.5,609.23 1117.5,641 1138.5,638.32 1138.5,611.91 	"/>
	<polygon class="st1" points="8.77,624.62 4.5,624.62 4.5,625.61 8.77,625.61 25.5,627.52 25.5,622.71 	"/>
	<polygon class="st1" points="1241.65,625.12 1243.5,625.35 1243.5,624.88 	"/>
	<polygon class="st1" points="1243.5,624.88 1243.5,624.62 1237.8,624.62 1222.5,622.66 1222.5,627.57 1237.8,625.61 1243.5,625.61 
		1243.5,625.35 1241.65,625.12 	"/>
</g>
</svg>
