<?xml version="1.0" encoding="utf-8"?>
<!-- Generator: Adobe Illustrator 23.0.1, SVG Export Plug-In . SVG Version: 6.00 Build 0)  -->
<svg version="1.1" id="Capa_1" xmlns="http://www.w3.org/2000/svg" xmlns:xlink="http://www.w3.org/1999/xlink" x="0px" y="0px"
	 viewBox="0 0 198.06 162.06" style="enable-background:new 0 0 198.06 162.06;" xml:space="preserve">
<style type="text/css">
	.st0{fill:#16629E;stroke:#000000;stroke-miterlimit:10;}
	.st1{fill:#2196F3;stroke:#000000;stroke-miterlimit:10;}
	.st2{opacity:0.19;stroke:#000000;stroke-miterlimit:10;}
</style>
<polygon class="st0" points="99.28,29.53 31.53,54.42 31.53,131.02 99.28,106.13 "/>
<polygon class="st1" points="31.53,54.54 99.28,79.44 99.28,156.03 31.53,131.14 "/>
<polygon class="st0" points="99.28,29.53 167.03,54.42 167.03,131.02 99.28,106.13 "/>
<polygon class="st1" points="167.03,54.54 99.28,79.44 99.28,156.03 167.03,131.14 "/>
<g>
	<polygon class="st1" points="166.27,54.29 192,28.56 124.53,4.03 98.79,29.77 	"/>
</g>
<g>
	<polygon class="st1" points="99,29.77 73.26,4.03 5.79,28.56 31.52,54.29 	"/>
</g>
<polygon class="st2" points="101.53,81.53 125.02,110.29 166.53,95.21 166.53,60.03 166.03,59.53 "/>
<polygon class="st2" points="96.53,81.53 73.04,110.29 31.53,95.21 31.53,60.03 32.03,59.53 "/>
<g>
	<polygon class="st1" points="193,80.77 166.53,54.53 99.79,79.56 125.52,105.29 	"/>
</g>
<g>
	<polygon class="st1" points="73.27,105.29 99,79.56 32.26,54.53 5.79,80.77 	"/>
</g>
</svg>
