<?xml version="1.0" encoding="utf-8"?>
<!-- Generator: Adobe Illustrator 23.0.1, SVG Export Plug-In . SVG Version: 6.00 Build 0)  -->
<svg version="1.1" xmlns="http://www.w3.org/2000/svg" xmlns:xlink="http://www.w3.org/1999/xlink" x="0px" y="0px"
	 viewBox="0 0 1068 1068" style="enable-background:new 0 0 1068 1068;" xml:space="preserve">
<style type="text/css">
	.st0{fill:#F2F2F2;}
	.st1{fill:#F0BB8C;}
	.st2{fill:#CC9F76;}
	.st3{fill:#4D4D4D;}
	.st4{fill:#FFC794;}
	.st5{fill:#454545;}
	.st6{fill:#CCCCCC;}
	.st7{fill:#FBB03B;}
	.st8{fill:#1976D2;}
	.st9{opacity:0.69;fill:#CC9F76;}
	.st10{fill:#C2C2C2;}
	.st11{fill:#A8A8A8;}
	.st12{fill:#2196F3;}
</style>
<g id="Capa_14">
	<circle class="st0" cx="535" cy="534" r="534"/>
</g>
<g id="Inferior_3_desbalan">
	<path class="st1" d="M556.89,930.32l33.21-7.78l3.02-108.58l-1.46-121.19l-53.73-0.37c0,0,15.63,96.93,15.13,129.29
		C552.66,846.92,556.89,930.32,556.89,930.32z"/>
	<path class="st2" d="M544.07,728.93c-1.75-12.36-3.39-23.23-4.53-30.62c8.75-1.85,19.28-2.89,30.6-2.82
		c7.69,0.05,15.01,0.62,21.65,1.59l0.39,32.73c-6.82,0.94-14.36,1.44-22.29,1.39C560.55,731.14,551.77,730.32,544.07,728.93z"/>
	<polygon class="st3" points="592.43,915.7 557.68,915.47 554.6,930.31 549.89,950.85 565.75,972.68 592.04,972.86 610.33,972.99 
		603.66,944.36 	"/>
	<path class="st4" d="M493.77,682.78c-10.94,1.38-21.42,1.92-30.98,1.75L474.59,795l22,149.3l47.08,5.28
		c0,0-7.86-115.75-12.54-150.49c-3.43-25.46-3.06-80.86-2.11-123.68C518.64,678.58,506.65,681.16,493.77,682.78z"/>
	<path class="st2" d="M535.89,736.2c0.86-15.29,1.74-28.76,2.37-37.91c-10.89-1.36-23.87-1.54-37.71-0.27
		c-9.4,0.86-18.29,2.31-26.31,4.19l2.91,40.07c8.43,0.44,17.7,0.27,27.4-0.62C515.96,740.61,526.62,738.7,535.89,736.2z"/>
	<path class="st5" d="M509.54,654.27l12.81,63.12c0,0,33.49,3.33,44.61,2.34c11.59-1.03,45.32-10.58,45.32-10.58l5.79-198.64
		l-119.86,11.07"/>
	<path class="st3" d="M520.59,535.51l-109.18,9.91l37.56,194.67c0,0,35.86,3.11,47.76,2.06c12.5-1.1,48.99-10.91,48.99-10.91
		l-1.85-64.12"/>
	<path class="st6" d="M474.68,739.79"/>
	<path class="st7" d="M508.12,833.63"/>
	<path class="st7" d="M508.95,840.24"/>
	<polygon class="st3" points="495.01,944.49 542.9,938.46 549.59,958.43 559.47,986 541.18,1018.71 504.93,1023.28 479.72,1026.45 
		484.22,985.87 	"/>
</g>
<g id="Superior_desbalanceado">
	<circle class="st4" cx="856.69" cy="439.37" r="23.05"/>
	<path class="st4" d="M651.11,362.49c0,0,88.62,19.7,118.1,28.91c21.35,6.67,88.73,29.68,88.73,29.68l-16.13,26.2l-199.62-31.1
		L651.11,362.49z"/>
	<path class="st2" d="M857.25,452.74c10.95-0.5,19.82-7.18,21.77-15.67c0.44,1.33,0.71,2.72,0.78,4.16
		c0.47,10.4-9.46,19.3-22.17,19.88c-12.72,0.58-23.41-7.39-23.88-17.8c-0.07-1.44,0.09-2.85,0.4-4.21
		C836.87,447.39,846.3,453.24,857.25,452.74z"/>
	<path class="st8" d="M632.8,361.21c2.12-5.52,2.1-11.49,0.32-17.47c22,8.5,65.15,20.88,85.88,32.26c5.08,31.5-2.73,22.14-10,52
		c-78-16-92-26-144.78-15.5c4.02-11.51,8.19-22.94,12.5-34.31C602.29,384.87,626.33,378.05,632.8,361.21z"/>
	<circle class="st4" cx="300.93" cy="242.49" r="23.05"/>
	<path class="st4" d="M515.35,312.21c0,0-82.11-38.72-111.06-49.5c-20.96-7.8-93.15-35.45-93.15-35.45l-3.3,30.6l181.67,102.25
		L515.35,312.21z"/>
	<path class="st2" d="M292.29,252.71c-8.35-7.1-11.27-17.81-7.61-25.72c-1.16,0.79-2.23,1.71-3.16,2.81
		c-6.75,7.93-4.35,21.05,5.34,29.3c9.7,8.25,23.03,8.5,29.77,0.56c0.93-1.1,1.68-2.3,2.26-3.58
		C311.68,260.97,300.64,259.82,292.29,252.71z"/>
	<path class="st8" d="M530.61,322.41c1.71-5.66,5.38-10.37,10.45-14c-22.6-6.77-64.29-23.41-87.64-27.11
		c-23.31,21.78-11.4,19.17-23.95,47.23c71.45,35.14,88.64,35.81,123.93,76.44c3.88-11.56,7.58-23.15,11.14-34.77
		C540.23,359.8,525.4,339.69,530.61,322.41z"/>
	<path class="st4" d="M628.39,305.53c2.71-16.66,7.25-31.91,12.9-44.59l-68.47-11.13c1.34,13.82,0.82,29.72-1.88,46.38
		c-3.63,22.34-10.57,42.13-19.03,56.61l-0.66,4.08l77.81,12.64l0.18-1.11C625.13,351.57,624.52,329.33,628.39,305.53z"/>
	<path class="st9" d="M641.01,266.42l-68.47-11.13c1.34,13.82,0.82,29.72-1.88,46.38c-0.25,1.54-0.52,3.06-0.8,4.57
		c8.47,3.89,17.97,6.82,28.17,8.48c10.19,1.66,20.13,1.88,29.4,0.88c0.21-1.52,0.44-3.05,0.69-4.59
		C630.82,294.35,635.37,279.1,641.01,266.42z"/>
	<path class="st10" d="M624.54,291.39L600,287.4l-24.54-3.99c-13.5-2.19-24.87-9.71-32.32-20.05c-7.45-10.34-10.98-23.51-8.78-37.01
		c0,0,11.34-39.57,13.54-53.09s3.97-54.65,3.97-54.65c2.19-13.5,9.71-24.87,20.05-32.32c3.16-2.28,39.42-19.38,43.74-19.98
		c3.16-0.44-9.69,19.48-7.71,17.18c5.41-6.28,37.8-16.72,48.6-11.76l-13.11,12.61L658,85.49c5.99,0.97,28.12,0.88,28.12,0.88
		s-7.83,2.9-5.15,8.99c1.05,2.38,5.88,6.14,9.35,10.17c7.45,10.34,10.98,23.51,8.78,37.01c0,0-10.15,39.79-12.34,53.28
		c-2.19,13.5-5.16,54.45-5.16,54.45c-2.19,13.5-9.71,24.87-20.05,32.32C651.21,290.05,638.04,293.58,624.54,291.39z"/>
	<path class="st11" d="M660.98,278.88c-10.34,7.45-16.53,3.46-28.12-0.88c0,0-19.71-12.92-28.37-14.44
		c-8.87-1.55-32.87,5.72-32.87,5.72c-13.56,0.25-18.92-1.32-26.37-11.66c-7.45-10.34-13.09-17.76-10.89-31.26
		c-2.19,13.5,1.33,26.66,8.78,37.01c7.45,10.34,18.82,17.86,32.32,20.05L600,287.4l24.54,3.99c13.5,2.19,26.66-1.33,37.01-8.78
		c7.25-5.22,13.1-12.37,16.71-20.83C673.72,271.39,666.59,273.22,660.98,278.88z"/>
	<path class="st4" d="M627.67,236.6c0,0-10.3-7.79-14.94-8.57c-4.74-0.8-17.36,3.32-17.36,3.32l-5.37-0.87
		c-10.36-1.68-19.23-6.58-25.18-13.12s-8.97-14.72-7.63-22.96c0,0,7.68-24.03,9.02-32.29c1.34-8.25,1.67-33.48,1.67-33.48
		c0.75-4.6,6.68-5.76,9.68-9.28c2.36-2.78,4.15-14.31,7.55-16.21c3.61-2.02,6.37,10.16,10.77,9.33c5.01-0.94,9.03-8.57,14.55-7.67
		l-6.56,11.43c0,0,14.52-11.36,18.54-8.26c1.92,1.48-1.56,9.58-1.56,9.58l26.86-6.52c5.18,0.84,14.45,16.92,14.62,4.63
		c0.07-4.82,8.03,5.05,10.93,8.38c3.3,3.78,1.77,6.9,5.73,8.73c4.46,2.07,2.69,9.36,1.9,14.23c0,0-6.76,24.2-8.1,32.44
		s-2.59,33.33-2.59,33.33c-1.34,8.24-6.79,15.04-14.51,19.36C647.99,236.45,638.03,238.29,627.67,236.6z"/>
	<path class="st12" d="M659.28,354.21c-9.2-4.7-18.51-9.17-27.93-13.45c-8.63,1.79-24.25-0.69-40.96-7.11
		c-16.71-6.42-29.98-15.03-35.19-22.14c-9.85-3.12-19.77-6.03-29.75-8.7c-51.61,77.76-91.73,153.73-119.57,235.8
		C445,588,533,591,590.31,609.44C624.55,529.83,645.58,446.53,659.28,354.21z"/>
</g>
</svg>
