<?xml version="1.0" encoding="utf-8"?>
<!-- Generator: Adobe Illustrator 23.0.1, SVG Export Plug-In . SVG Version: 6.00 Build 0)  -->
<svg version="1.1" xmlns="http://www.w3.org/2000/svg" xmlns:xlink="http://www.w3.org/1999/xlink" x="0px" y="0px"
	 viewBox="0 0 900 900" style="enable-background:new 0 0 900 900;" xml:space="preserve">
<style type="text/css">
	.st0{fill:#F2F2F2;}
	.st1{fill:#FF5559;stroke:#000000;stroke-miterlimit:10;}
	.st2{fill:#FFFFFF;stroke:#000000;stroke-miterlimit:10;}
	.st3{fill:none;stroke:#000000;stroke-width:30;stroke-linecap:round;stroke-miterlimit:10;}
</style>
<g id="Capa_2">
	<circle class="st0" cx="450" cy="450" r="450"/>
	<g>
		<g>
			<path d="M322.38,451.51l39.38-85.96H389l-38.32,84.9h57.39v23.2h-85.69V451.51z M373.97,418.11h24.08v75.23h-24.08V418.11z"/>
			<path d="M458.17,402.03h24.08v91.23h-24.08V402.03z M511.35,440.61c0-5.33-1.32-9.45-3.96-12.35s-6.36-4.35-11.16-4.35
				c-4.45,0-7.9,1.25-10.33,3.74c-2.43,2.49-3.65,5.99-3.65,10.5l-1.85-20.21c2.69-5.63,6.06-9.9,10.11-12.83
				c4.04-2.93,8.79-4.39,14.24-4.39c6.44,0,11.97,1.55,16.57,4.66c4.6,3.11,8.1,7.65,10.5,13.62c2.4,5.98,3.6,13.15,3.6,21.53v52.73
				h-24.08V440.61z M564.52,440.61c0-5.33-1.27-9.45-3.82-12.35s-6.17-4.35-10.85-4.35c-4.63,0-8.19,1.39-10.68,4.17
				c-2.49,2.78-3.74,6.72-3.74,11.82l-4.48-21.09c2.87-5.8,6.61-10.27,11.21-13.4c4.6-3.13,9.71-4.7,15.34-4.7
				c6.56,0,12.17,1.55,16.83,4.66c4.66,3.11,8.2,7.65,10.63,13.62c2.43,5.98,3.65,13.15,3.65,21.53v52.73h-24.08V440.61z"/>
		</g>
	</g>
</g>
<g id="Capa_1">
	<path class="st1" d="M217.5,405.5c0,23.75-43,131-86,131s-86-107.25-86-131c0-47.5,38.5-86,86-86S217.5,358,217.5,405.5z"/>
	<circle class="st2" cx="131.5" cy="405.5" r="34"/>
	<line class="st3" x1="659" y1="566" x2="740" y2="566"/>
	<line class="st3" x1="532" y1="566" x2="613" y2="566"/>
	<line class="st3" x1="409" y1="566" x2="490" y2="566"/>
	<line class="st3" x1="288" y1="566" x2="369" y2="566"/>
	<line class="st3" x1="169" y1="566" x2="250" y2="566"/>
	<path class="st1" d="M865.5,405.5c0,23.75-43,131-86,131s-86-107.25-86-131c0-47.5,38.5-86,86-86S865.5,358,865.5,405.5z"/>
	<circle class="st2" cx="779.5" cy="405.5" r="34"/>
	<line class="st3" x1="779" y1="566" x2="779.01" y2="566"/>
	<line class="st3" x1="131" y1="566" x2="131.01" y2="566"/>
</g>
</svg>
