<?xml version="1.0" encoding="utf-8"?>
<!-- Generator: Adobe Illustrator 23.0.1, SVG Export Plug-In . SVG Version: 6.00 Build 0)  -->
<svg version="1.1" xmlns="http://www.w3.org/2000/svg" xmlns:xlink="http://www.w3.org/1999/xlink" x="0px" y="0px"
	 viewBox="0 0 937.56 937.56" style="enable-background:new 0 0 937.56 937.56;" xml:space="preserve">
<style type="text/css">
	.st0{fill:#F2F2F2;}
</style>
<g id="Capa_2">
	<circle class="st0" cx="468.78" cy="468.78" r="468.78"/>
</g>
<g id="Capa_1">
	<path d="M470.64,176.79V63.58c0-18.26-21.91-27.19-34.49-14.2L281.96,203.17c-8.12,8.12-8.12,20.69,0,28.81l153.79,153.79
		c12.98,12.58,34.9,3.65,34.9-14.61V257.95c151.35,0,271.06,138.77,237.78,295.81c-19.07,92.11-93.73,166.37-185.44,185.44
		c-144.86,30.43-273.9-68.98-293.37-203.29c-2.84-19.48-19.88-34.49-39.77-34.49c-24.35,0-43.82,21.51-40.58,45.85
		c25.16,178.13,194.77,310.01,386.7,272.68c126.6-24.75,228.45-126.6,253.2-253.2C829.35,358.58,671.09,176.79,470.64,176.79z"/>
</g>
</svg>
