<?xml version="1.0" encoding="utf-8"?>
<!-- Generator: Adobe Illustrator 23.0.1, SVG Export Plug-In . SVG Version: 6.00 Build 0)  -->
<svg version="1.1" xmlns="http://www.w3.org/2000/svg" xmlns:xlink="http://www.w3.org/1999/xlink" x="0px" y="0px"
	 viewBox="0 0 1068 1068" style="enable-background:new 0 0 1068 1068;" xml:space="preserve">
<style type="text/css">
	.st0{fill:#F2F2F2;}
	.st1{fill:#603813;}
	.st2{fill:#754C24;}
	.st3{fill:#4D4D4D;}
	.st4{fill:#333333;}
	.st5{fill:#CCCCCC;}
	.st6{fill:#FFC794;}
	.st7{fill:#FBB03B;}
	.st8{fill:#1976D2;}
	.st9{opacity:0.69;fill:#CC9F76;}
	.st10{fill:#C2C2C2;}
	.st11{fill:#A8A8A8;}
	.st12{fill:#2196F3;}
	.st13{fill:#E3B184;}
	.st14{fill:#E6B385;}
	.st15{fill:#CC9F76;}
	.st16{fill:#FFC693;}
</style>
<g id="Capa_14">
	<circle class="st0" cx="535" cy="534" r="534"/>
</g>
<g id="silla">
	<rect x="624.97" y="659.62" class="st1" width="35.57" height="265.44"/>
	<rect x="407.96" y="659.62" class="st1" width="35.57" height="265.44"/>
	<rect x="378.62" y="676.31" class="st2" width="315.36" height="42.68"/>
	<rect x="382.47" y="685.32" class="st2" width="35.57" height="291.47"/>
	<rect x="653.8" y="685.32" class="st2" width="35.57" height="291.47"/>
	<g>
		<path class="st1" d="M692.56,676.1c-104.43,0-208.86,0-313.29,0c13.62-21.42,27.24-42.83,40.86-64.25c77.19,0,154.37,0,231.56,0
			C665.32,633.26,678.94,654.68,692.56,676.1z"/>
	</g>
	<rect x="417.7" y="288.02" class="st2" width="236.44" height="33.41"/>
	<rect x="417.7" y="288.02" class="st2" width="25.7" height="331.53"/>
	<rect x="628.44" y="288.02" class="st2" width="25.7" height="331.53"/>
	<rect x="523.07" y="288.02" class="st2" width="25.7" height="331.53"/>
</g>
<g id="Inferior_sentado">
	<polyline class="st3" points="510.73,685.47 533.73,652.97 561.24,685.47 662.81,636.57 625.01,577.15 447.9,566.87 417.7,654.25 	
		"/>
	<path class="st3" d="M519.21,659.39c-5.33,50.08-24.95,43.72-51.4,45.88c-35.98,2.95-61.68,5.52-51.4-57.45
		c5.11-31.31,23.01-51.4,51.4-51.4C496.2,596.42,522.57,627.84,519.21,659.39z"/>
	<ellipse class="st4" cx="466.53" cy="647.83" rx="40.58" ry="45.35"/>
	<path class="st5" d="M466.08,636.57"/>
	<path class="st6" d="M465.64,619.56c29.56,0,35.98,23.13,35.58,37.27l-68.1-3.85C432.71,640.12,437.37,619.56,465.64,619.56z"/>
	<path class="st7" d="M499.47,760.8"/>
	<path class="st7" d="M499.47,769.36"/>
	<polygon class="st3" points="432.01,919.58 482.01,919.58 486.3,940.97 492.88,970.58 469.85,1001.85 432.01,1001.85 
		405.68,1001.85 415.55,960.71 	"/>
	<path class="st6" d="M432.42,654.25l-2.06,109.02l3.29,156.31l47.72,11.52c0,0,6.9-120,6.58-156.31
		c-0.23-26.61,6.75-77.93,13.27-121.82c-11.57-1.29-23.18-2.57-36.62-2.57c-11.42,0-21.68-1.15-31.48-2.57L432.42,654.25"/>
	<path class="st3" d="M561.46,655.54c0.16,48.83,25.99,53.53,51.4,45.88c4.12-1.24,56.75-4.82,51.56-57.45
		c-2.41-24.42-29.58-39.8-57.83-39.84C578.2,604.1,561.35,623.81,561.46,655.54z"/>
	<ellipse class="st4" cx="612.86" cy="650.4" rx="40.58" ry="45.35"/>
	<path class="st6" d="M613.74,622.13c-29.56,0-35.98,23.13-35.58,37.27l68.1-3.85C646.67,642.69,642.01,622.13,613.74,622.13z"/>
	<path class="st7" d="M564.5,763.37"/>
	<path class="st7" d="M564.5,771.93"/>
	<path class="st6" d="M646.96,656.82l2.06,109.02l-3.29,156.31l-47.72,11.52c0,0-6.9-120-6.58-156.31
		c0.23-26.61-6.75-77.93-13.27-121.82c11.57-1.29,23.18-2.57,36.62-2.57c11.42,0,21.68-1.15,31.48-2.57L646.96,656.82"/>
	<polygon class="st3" points="650.84,919.58 600.83,919.58 596.54,940.97 589.96,970.58 613,1001.85 650.84,1001.85 677.17,1001.85 
		667.29,960.71 	"/>
</g>
<g id="Superior_sentado">
	<path class="st8" d="M481.88,360.59c0-5.52,2.01-10.73,5.57-15.34c-22.04,0.04-44.08,1.54-65.96,4.52
		c-14.98,25.77-17.3,58.3-20.96,86.79c38.82,1.87,90.92,19.14,124-8.26c0.35-11.39,0.54-22.75,0.59-34.11
		C500.57,391.45,481.88,377.45,481.88,360.59z"/>
	<path class="st8" d="M575.36,360.59c0-5.52-2.01-10.73-5.57-15.34c22.04,0.04,44.08,1.54,65.96,4.52
		c14.98,25.77,17.3,58.3,20.96,86.79c-38.82,1.87-90.92,19.14-124-8.26c-0.35-11.39-0.54-22.75-0.59-34.11
		C556.67,391.45,575.36,377.45,575.36,360.59z"/>
	<path class="st6" d="M558.33,317.22c0-15.77,1.91-30.52,5.21-43.06h-64.82c3.31,12.54,5.21,27.28,5.21,43.06
		c0,21.15-3.43,40.44-9.07,55.06v3.86h73.65v-1.05C562.22,360.17,558.33,339.75,558.33,317.22z"/>
	<path class="st9" d="M564.11,279.26h-64.82c3.31,12.54,5.21,27.28,5.21,43.06c0,1.45-0.02,2.9-0.05,4.33
		c8.4,2.31,17.6,3.6,27.25,3.6c9.65,0,18.85-1.28,27.24-3.6c-0.03-1.44-0.05-2.88-0.05-4.33C558.9,306.54,560.8,291.8,564.11,279.26
		z"/>
	<path class="st10" d="M552.66,304.76h-23.23h-23.23c-12.78,0-24.39-5.23-32.81-13.65s-13.65-20.04-13.65-32.81
		c0,0,4.53-38.19,4.53-50.99c0-12.8-4.53-50.99-4.53-50.99c0-12.78,5.23-24.39,13.65-32.81c2.58-2.58,33.45-23.78,37.34-24.98
		c2.85-0.88-6.02,19.42-4.53,17c4.05-6.6,32.35-21.09,43.06-18.13l-10.2,13.6l13.6-1.13c5.67,0,26.06-3.4,26.06-3.4
		s-6.78,3.85-3.4,9.07c1.32,2.04,6.34,4.78,10.15,7.98c8.42,8.42,13.65,20.04,13.65,32.81c0,0-3.4,38.21-3.4,50.99
		c0,12.78,3.4,50.99,3.4,50.99c0,12.78-5.23,24.39-13.65,32.81C577.05,299.53,565.44,304.76,552.66,304.76z"/>
	<path class="st11" d="M584.39,287.76c-8.42,8.42-14.73,5.67-26.06,3.4c0,0-20.11-8.96-28.33-9.07c-8.41-0.1-29.46,10.2-29.46,10.2
		c-12.46,2.27-17.64,1.62-26.06-6.8c-8.42-8.42-14.73-14.42-14.73-27.2c0,12.78,5.23,24.39,13.65,32.81
		c8.42,8.42,20.04,13.65,32.81,13.65h23.23h23.23c12.78,0,24.39-5.23,32.81-13.65c5.9-5.9,10.22-13.37,12.29-21.71
		C595.02,278.94,588.72,281.7,584.39,287.76z"/>
	<path class="st6" d="M547.33,253.76c0,0-10.67-5.64-15.07-5.67c-4.49-0.03-15.51,5.67-15.51,5.67h-5.08
		c-9.81,0-18.72-3.19-25.19-8.33c-6.46-5.14-10.48-12.23-10.48-20.03c0,0,3.48-23.32,3.48-31.13c0-7.81-3.48-31.13-3.48-31.13
		c0-4.36,5.3-6.31,7.53-10.01c1.76-2.92,1.68-13.81,4.53-16.08c3.02-2.4,7.4,8.41,11.33,6.99c4.48-1.62,7.04-9.25,12.27-9.25
		l-4.33,11.53c0,0,11.69-12.65,15.86-10.39c1.99,1.08,0,9.07,0,9.07l23.8-10.04c4.9,0,15.86,13.44,14.18,2.08
		c-0.66-4.45,8.16,3.46,11.34,6.09c3.61,2.99,2.67,6.1,6.59,7.19c4.42,1.24,3.89,8.22,3.89,12.84c0,0-2.61,23.33-2.61,31.13
		s2.61,31.13,2.61,31.13c0,7.8-4.01,14.89-10.48,20.03C566.05,250.57,557.14,253.76,547.33,253.76z"/>
	<path class="st12" d="M596.11,345.62c-9.6-1.02-19.22-1.8-28.86-2.37c-6.93,4.45-21.39,7.52-38.11,7.52
		c-16.73,0-31.19-3.07-38.11-7.52c-9.64,0.58-19.27,1.36-28.86,2.37c-18.97,85.11-28.52,164.82-25.32,245.72
		c45.1-10.34,64.4,6.29,91.36,12.79c37.27,9,55.26-24.42,93.22-12.79C624.63,510.43,615.08,430.73,596.11,345.62z"/>
	<path class="st13" d="M655.3,476.98c0,0-82.95-6.73-110.96-10.98c-20.28-3.08-81-14.63-81-14.63l16.35-34.04l175.29,18.29
		L655.3,476.98z"/>
	<circle class="st14" cx="465.95" cy="434.27" r="20.73"/>
	<path class="st15" d="M452.51,432.77c-1.34,10.16,3.34,19.41,10.83,22.6c-1.3,0.18-2.62,0.21-3.95,0.03
		c-9.65-1.28-16.2-11.87-14.64-23.66c1.56-11.79,10.64-20.31,20.29-19.04c1.34,0.18,2.61,0.55,3.81,1.06
		C460.78,414.89,453.85,422.61,452.51,432.77z"/>
	<path class="st6" d="M402.64,437c0,0,82.76-8.77,111.07-9.8c20.5-0.74,82.31-0.66,82.31-0.66l-9.75,36.48l-175.65,14.55L402.64,437
		z"/>
	<circle class="st16" cx="593.87" cy="438.2" r="20.73"/>
	<path class="st15" d="M598.13,456.46c10.19-1.11,18.06-7.86,19.38-15.89c0.48,1.22,0.83,2.49,0.97,3.83
		c1.05,9.67-7.68,18.56-19.5,19.84c-11.82,1.29-22.26-5.51-23.31-15.19c-0.15-1.34-0.09-2.66,0.13-3.95
		C578.8,452.66,587.94,457.56,598.13,456.46z"/>
</g>
</svg>
