<?xml version="1.0" encoding="utf-8"?>
<!-- Generator: Adobe Illustrator 23.0.1, SVG Export Plug-In . SVG Version: 6.00 Build 0)  -->
<svg version="1.1" xmlns="http://www.w3.org/2000/svg" xmlns:xlink="http://www.w3.org/1999/xlink" x="0px" y="0px"
	 viewBox="0 0 1068 1068" style="enable-background:new 0 0 1068 1068;" xml:space="preserve">
<style type="text/css">
	.st0{fill:#F2F2F2;}
	.st1{fill:#603813;}
	.st2{fill:#754C24;}
	.st3{display:none;}
	.st4{display:inline;fill:#4D4D4D;}
	.st5{display:inline;fill:#333333;}
	.st6{display:inline;fill:#CCCCCC;}
	.st7{display:inline;fill:#FFC794;}
	.st8{display:inline;fill:#FBB03B;}
	.st9{fill:#FFC794;}
	.st10{fill:#CC9F76;}
	.st11{fill:#4D4D4D;}
	.st12{fill:#CCCCCC;}
	.st13{fill:#FBB03B;}
	.st14{display:inline;fill:#F0BB8C;}
	.st15{display:inline;fill:#CC9F76;}
	.st16{display:inline;fill:#454545;}
	.st17{display:inline;fill:#E0AF82;}
	.st18{display:inline;fill:#474747;}
	.st19{display:inline;opacity:0.46;fill:#4D4D4D;}
	.st20{display:inline;opacity:0.24;fill:#4D4D4D;}
	.st21{display:inline;fill:#1976D2;}
	.st22{display:inline;opacity:0.69;fill:#CC9F76;}
	.st23{display:inline;fill:#C2C2C2;}
	.st24{display:inline;fill:#A8A8A8;}
	.st25{display:inline;fill:#2196F3;}
	.st26{display:inline;fill:#E3B184;}
	.st27{display:inline;fill:#E6B385;}
	.st28{display:inline;fill:#FFC693;}
	.st29{fill:#1976D2;}
	.st30{opacity:0.69;fill:#CC9F76;}
	.st31{fill:#C2C2C2;}
	.st32{fill:#A8A8A8;}
	.st33{fill:#2196F3;}
	.st34{fill:#E3B184;}
	.st35{fill:#E6B385;}
	.st36{fill:#FFC693;}
	.st37{display:inline;}
	.st38{display:inline;fill:#666666;}
	.st39{display:inline;fill:#1A1A1A;stroke:#000000;stroke-miterlimit:10;}
	.st40{display:inline;fill:#4D4D4D;stroke:#000000;stroke-miterlimit:10;}
	.st41{display:inline;fill:none;stroke:#333333;stroke-linecap:round;stroke-miterlimit:10;}
	.st42{display:inline;fill:#ED1C24;}
</style>
<g id="Capa_14">
	<circle class="st0" cx="535" cy="534" r="534"/>
</g>
<g id="silla">
	<rect x="601.3" y="758.18" class="st1" width="27.68" height="206.57"/>
	<rect x="432.43" y="758.18" class="st1" width="27.68" height="206.57"/>
	<rect x="409.59" y="771.17" class="st2" width="245.41" height="33.21"/>
	<rect x="412.59" y="778.18" class="st2" width="27.68" height="226.82"/>
	<rect x="623.73" y="778.18" class="st2" width="27.68" height="226.82"/>
	<g>
		<path class="st1" d="M653.9,771c-81.27,0-162.53,0-243.8,0c10.6-16.67,21.2-33.33,31.8-50c60.07,0,120.13,0,180.2,0
			C632.7,737.67,643.3,754.33,653.9,771z"/>
	</g>
	<rect x="440" y="469" class="st2" width="184" height="26"/>
	<rect x="440" y="469" class="st2" width="20" height="258"/>
	<rect x="604" y="469" class="st2" width="20" height="258"/>
	<rect x="522" y="469" class="st2" width="20" height="258"/>
</g>
<g id="Inferior_sentado" class="st3">
	<polyline class="st4" points="512.4,778.29 530.3,753 551.7,778.29 630.75,740.24 601.33,694 463.5,686 440,754 	"/>
	<path class="st4" d="M519,758c-4.15,38.98-19.42,34.02-40,35.71C451,796,431,798,439,749c3.98-24.37,17.91-40,40-40
		S521.61,733.45,519,758z"/>
	<ellipse class="st5" cx="478" cy="749" rx="31.58" ry="35.29"/>
	<path class="st6" d="M477.65,740.24"/>
	<path class="st7" d="M477.31,727c23,0,28,18,27.68,29l-53-3C451.68,743,455.31,727,477.31,727z"/>
	<path class="st8" d="M503.63,836.92"/>
	<path class="st8" d="M503.63,843.57"/>
	<polygon class="st4" points="451.14,960.48 490.05,960.48 493.39,977.12 498.51,1000.17 480.59,1024.5 451.14,1024.5 
		430.65,1024.5 438.33,992.49 	"/>
	<path class="st7" d="M451.46,754l-1.6,84.84l2.56,121.64l37.13,8.96c0,0,5.37-93.38,5.12-121.64c-0.18-20.71,5.26-60.64,10.33-94.8
		c-9-1-18.03-2-28.5-2c-8.89,0-16.87-0.9-24.5-2L451.46,754"/>
	<path class="st4" d="M551.87,755c0.13,38,20.22,41.66,40,35.71c3.2-0.96,44.17-3.75,40.13-44.71c-1.87-19-23.02-30.97-45-31
		C564.91,714.97,551.79,730.31,551.87,755z"/>
	<ellipse class="st5" cx="591.87" cy="751" rx="31.58" ry="35.29"/>
	<path class="st7" d="M592.56,729c-23,0-28,18-27.68,29l53-3C618.19,745,614.56,729,592.56,729z"/>
	<path class="st8" d="M554.24,838.92"/>
	<path class="st8" d="M554.24,845.57"/>
	<path class="st7" d="M618.42,756l1.6,84.84l-2.56,121.64l-37.13,8.96c0,0-5.37-93.38-5.12-121.64c0.18-20.71-5.26-60.64-10.33-94.8
		c9-1,18.03-2,28.5-2c8.89,0,16.87-0.9,24.5-2L618.42,756"/>
	<polygon class="st4" points="621.43,960.48 582.52,960.48 579.18,977.12 574.06,1000.17 591.98,1024.5 621.43,1024.5 
		641.92,1024.5 634.24,992.49 	"/>
</g>
<g id="Inferior_normal">
	<path class="st9" d="M581.74,977.12l37.13-8.96l2.56-121.64l-2.56-135.73h-60.18c0,0,18.24,108.45,17.93,144.69
		C576.37,883.74,581.74,977.12,581.74,977.12z"/>
	<path class="st10" d="M565.85,751.65c-2.05-13.83-3.97-25.99-5.31-34.26c9.79-2.14,21.57-3.39,34.25-3.39
		c8.62,0,16.82,0.58,24.26,1.62l0.69,36.66c-7.63,1.1-16.07,1.72-24.95,1.72C584.33,754,574.48,753.15,565.85,751.65z"/>
	<path class="st10" d="M505.44,748.65c2.05-13.83,3.97-25.99,5.31-34.26c-9.79-2.14-21.57-3.39-34.25-3.39
		c-8.62,0-16.82,0.58-24.26,1.62l-0.69,36.66c7.63,1.1,16.07,1.72,24.95,1.72C486.97,751,496.82,750.15,505.44,748.65z"/>
	<path class="st11" d="M438.33,534.09l-7.68,197.19c0,0,35.42,6.36,47.38,6.4c12.55,0.04,49.78-6.4,49.78-6.4l4-64.02l7,64.02
		c0,0,33.05,6.37,44.22,6.4c11.63,0.03,46.1-6.4,46.1-6.4l-8.96-197.19H438.33z"/>
	<path class="st12" d="M477.65,740.24"/>
	<path class="st13" d="M503.63,836.92"/>
	<path class="st13" d="M503.63,843.57"/>
	<polygon class="st11" points="451.14,960.48 490.05,960.48 493.39,977.12 498.51,1000.17 480.59,1024.5 451.14,1024.5 
		430.65,1024.5 438.33,992.49 	"/>
	<polygon class="st11" points="621.43,960.48 582.52,960.48 579.18,977.12 574.06,1000.17 591.98,1024.5 621.43,1024.5 
		641.92,1024.5 634.24,992.49 	"/>
	<path class="st9" d="M476.5,751c-8.89,0-17.33-0.62-24.95-1.72l-1.69,89.56l2.56,121.64l37.13,8.96c0,0,5.37-93.38,5.12-121.64
		c-0.18-20.71,5.7-64.99,10.77-99.15C496.82,750.15,486.97,751,476.5,751z"/>
</g>
<g id="Inferior_3_balan" class="st3">
	<path class="st14" d="M520.77,937.48l33.78-4.72l12.91-107.86l9.6-120.82l-53.47-5.26c0,0,6.72,97.95,3.27,130.13
		C524.17,854.04,520.77,937.48,520.77,937.48z"/>
	<path class="st15" d="M526.38,735.75c-0.62-12.47-1.26-23.44-1.72-30.91c8.88-1.04,19.46-1.12,30.73-0.01
		c7.66,0.75,14.89,1.99,21.42,3.56l-2.59,32.63c-6.87,0.31-14.43,0.12-22.32-0.65C542.59,739.46,533.91,737.84,526.38,735.75z"/>
	<polygon class="st4" points="557.5,926.16 522.92,922.76 518.5,937.26 511.93,957.29 525.73,980.47 551.9,983.05 570.1,984.84 
		566.08,955.72 	"/>
	<path class="st7" d="M501.87,685.21c-11.02,0.37-21.5-0.04-31.01-1.08l1.67,111.09l8.29,150.68l46.41,9.55
		c0,0,2.73-115.99,1.23-151c-1.1-25.66,4.33-80.81,9.18-123.36C527.01,683.3,514.84,684.77,501.87,685.21z"/>
	<path class="st15" d="M538.93,742.25c2.25-15.15,4.35-28.48,5.82-37.54c-10.73-2.34-23.63-3.71-37.53-3.71
		c-9.44,0-18.43,0.63-26.58,1.77l-0.76,40.17c8.36,1.21,17.6,1.89,27.34,1.89C518.69,744.83,529.48,743.89,538.93,742.25z"/>
	<path class="st16" d="M498.8,658.26l7,64.02c0,0,33.05,6.37,44.22,6.4c11.63,0.03,46.1-6.4,46.1-6.4L620,525l-120.37,0.09"/>
	<path class="st4" d="M554,541l-121.63-0.09l19.65,197.28c0,0,35.42,6.36,47.38,6.4c12.55,0.04,49.78-6.4,49.78-6.4l4-64.02"/>
	<path class="st6" d="M477.65,740.24"/>
	<path class="st8" d="M502.39,836.74"/>
	<path class="st8" d="M502.62,843.4"/>
	<polygon class="st4" points="479.24,945.95 527.48,944.31 532.32,964.8 539.64,993.16 518.44,1024.07 481.93,1025.31 
		456.54,1026.17 464.71,986.17 	"/>
</g>
<g id="Inferior_3_desbalan" class="st3">
	<path class="st14" d="M556.89,930.32l33.21-7.78l3.02-108.58l-1.46-121.19l-53.73-0.37c0,0,15.63,96.93,15.13,129.29
		C552.66,846.92,556.89,930.32,556.89,930.32z"/>
	<path class="st15" d="M544.07,728.93c-1.75-12.36-3.39-23.23-4.53-30.62c8.75-1.85,19.28-2.89,30.6-2.82
		c7.69,0.05,15.01,0.62,21.65,1.59l0.39,32.73c-6.82,0.94-14.36,1.44-22.29,1.39C560.55,731.14,551.77,730.32,544.07,728.93z"/>
	<polygon class="st4" points="592.43,915.7 557.68,915.47 554.6,930.31 549.89,950.85 565.75,972.68 592.04,972.86 610.33,972.99 
		603.66,944.36 	"/>
	<path class="st7" d="M493.77,682.78c-10.94,1.38-21.42,1.92-30.98,1.75L474.59,795l22,149.3l47.08,5.28
		c0,0-7.86-115.75-12.54-150.49c-3.43-25.46-3.06-80.86-2.11-123.68C518.64,678.58,506.65,681.16,493.77,682.78z"/>
	<path class="st15" d="M535.89,736.2c0.86-15.29,1.74-28.76,2.37-37.91c-10.89-1.36-23.87-1.54-37.71-0.27
		c-9.4,0.86-18.29,2.31-26.31,4.19l2.91,40.07c8.43,0.44,17.7,0.27,27.4-0.62C515.96,740.61,526.62,738.7,535.89,736.2z"/>
	<path class="st16" d="M509.54,654.27l12.81,63.12c0,0,33.49,3.33,44.61,2.34c11.59-1.03,45.32-10.58,45.32-10.58l5.79-198.64
		l-119.86,11.07"/>
	<path class="st4" d="M520.59,535.51l-109.18,9.91l37.56,194.67c0,0,35.86,3.11,47.76,2.06c12.5-1.1,48.99-10.91,48.99-10.91
		l-1.85-64.12"/>
	<path class="st6" d="M474.68,739.79"/>
	<path class="st8" d="M508.12,833.63"/>
	<path class="st8" d="M508.95,840.24"/>
	<polygon class="st4" points="495.01,944.49 542.9,938.46 549.59,958.43 559.47,986 541.18,1018.71 504.93,1023.28 479.72,1026.45 
		484.22,985.87 	"/>
</g>
<g id="Inferior_2_balan" class="st3">
	<path class="st17" d="M556.35,921.98l31.19-4.86l8.69-94.67l-3.35-107.57L543,717.04c0,0,13.22,85.73,11,113.96
		C552.27,853.01,556.35,921.98,556.35,921.98z"/>
	<path class="st15" d="M549.3,736.44c-0.87-11.1-7.7-23.8-8.3-30.44c7.9-1.16,23.45-0.77,33.53-0.08
		c6.85,0.47,13.33,1.39,19.19,2.62l-1.47,29.17c-6.12,0.46-12.86,0.48-19.93-0.01C564.01,737.14,549,736,549.3,736.44z"/>
	<path class="st15" d="M525.82,744.73c2.55-14.23,4.93-26.74,6.58-35.25c-12.14-2.2-26.74-3.48-42.46-3.48
		c-10.68,0-20.85,0.6-30.08,1.67L459,745.38c9.46,1.13,19.92,1.77,30.94,1.77C502.91,747.15,515.12,746.28,525.82,744.73z"/>
	<path class="st18" d="M523.54,657.74l10.33,60.77c0,0,15.47,7.39,28.85,8.85c13.94,1.51,45.55-3.77,45.55-3.77l27.36-182.73
		l-132.59-15.34"/>
	<path class="st6" d="M475.65,740.24"/>
	<path class="st8" d="M513.75,830.92"/>
	<path class="st8" d="M513.75,837.69"/>
	<polygon class="st4" points="469.48,959.63 517.72,959.63 521.86,976.75 520.98,1003 516.56,1026 478.73,1026 462.86,1018.91 
		462.86,992.58 	"/>
	<polygon class="st4" points="587.92,917.1 557.58,915 553.93,929.95 548.7,947.64 551.28,964.71 568.75,972.94 591.05,969.47 
		596.17,942.75 	"/>
	<path class="st7" d="M490.18,747.15c-10.94,0-21.33-0.64-30.73-1.77l8.83,89.1l3.15,125.15l45.72,9.22c0,0,6.61-96.07,6.31-125.15
		c-0.22-21.31-3.89-63.83,2.35-98.97C515.2,746.28,503.07,747.15,490.18,747.15z"/>
	<path class="st4" d="M543,540l-104.67-5.91L435,728c0,0,31.07,9.64,43.03,9.68C490.57,737.72,537,732,537,732l6-62"/>
	<path class="st4" d="M631,418l-104.67-5.91L537,604c0,0,17.07,11.64,29.03,11.68C578.57,615.72,625,610,625,610l6-62"/>
	<path class="st19" d="M625,446l-104.67-5.91L531,632c0,0,17.07,11.64,29.03,11.68C572.57,643.72,619,638,619,638l6-62"/>
	<path class="st20" d="M625,468l-104.67-5.91L531,654c0,0,17.07,11.64,29.03,11.68C572.57,665.72,619,660,619,660l6-62"/>
</g>
<g id="Inferior_2_desbalan" class="st3">
	<path class="st17" d="M581.62,917.75l30.33-8.73L608.7,814L591.9,707.7l-49.21,8.39c0,0,23.86,83.4,25.2,111.69
		C568.92,849.83,581.62,917.75,581.62,917.75z"/>
	<path class="st15" d="M551.37,734.55c-2.26-10.91-10.62-22.65-12.05-29.16c7.69-2.14,23.17-3.71,33.25-4.28
		c6.85-0.39,13.4-0.3,19.37,0.2l2.2,29.13c-6.02,1.22-12.7,2.09-19.77,2.49C566.05,733.4,551.02,734.15,551.37,734.55z"/>
	<path class="st15" d="M529.11,745.72c0.74-14.43,1.54-27.15,2.11-35.79c-12.32-0.66-26.97-0.11-42.56,1.86
		c-10.6,1.34-20.61,3.2-29.64,5.42l3.88,37.53c9.53-0.06,19.98-0.74,30.92-2.12C506.69,750.99,518.7,748.59,529.11,745.72z"/>
	<path class="st18" d="M515.95,659.7l17.86,59c0,0,16.27,5.39,29.73,5.16c14.02-0.24,44.72-9.45,44.72-9.45l4.25-184.72l-133.46,1.4
		"/>
	<path class="st6" d="M478.78,747.55"/>
	<path class="st8" d="M527.94,832.74"/>
	<path class="st8" d="M528.79,839.46"/>
	<polygon class="st4" points="500.14,965.98 548.01,959.94 554.26,976.41 556.67,1002.56 555.17,1025.93 517.64,1030.67 
		501.01,1025.63 497.71,999.51 	"/>
	<polygon class="st4" points="612.33,908.95 581.97,910.67 580.22,925.95 577.24,944.16 581.94,960.77 600.31,966.75 621.99,960.51 
		623.73,933.36 	"/>
	<path class="st7" d="M494.06,752.59c-10.86,1.37-21.24,2.04-30.71,2.09l19.92,87.29l18.81,123.76l46.52,3.42
		c0,0-5.48-96.15-9.43-124.95c-2.89-21.11-11.86-62.84-10.07-98.48C518.77,748.58,506.85,750.97,494.06,752.59z"/>
	<path class="st4" d="M520.5,540.45l-104.58,7.26l21,192.8c0,0,32.04,5.67,43.9,4.21c12.45-1.53,57.8-13.03,57.8-13.03l-1.82-62.26"
		/>
	<path class="st4" d="M592.52,408.38l-104.58,7.26l34.63,189.06c0,0,18.4,9.41,30.26,7.95c12.45-1.53,57.8-13.03,57.8-13.03
		l-1.82-62.26"/>
	<path class="st19" d="M590.07,436.91l-104.58,7.26l34.63,189.06c0,0,18.4,9.41,30.26,7.95c12.45-1.53,57.8-13.03,57.8-13.03
		l-1.82-62.26"/>
	<path class="st20" d="M592.83,458.74L488.25,466l34.63,189.06c0,0,18.4,9.41,30.26,7.95c12.45-1.53,57.8-13.03,57.8-13.03
		l-1.82-62.26"/>
</g>
<g id="Inferior_1_desbalanceado" class="st3">
	<path class="st7" d="M603.4,960.05l35.92-13l-10.87-121.18l-17.51-134.62l-59.81,6.64c0,0,30.09,105.78,33.77,141.83
		C587.77,867.83,603.4,960.05,603.4,960.05z"/>
	<path class="st15" d="M562.75,737.7c-3.57-13.52-6.82-25.39-9.05-33.47c9.49-3.2,21.07-5.75,33.67-7.14
		c8.57-0.95,16.78-1.28,24.29-1.07l4.73,36.36c-7.46,1.94-15.78,3.48-24.61,4.46C581.37,738,571.49,738.24,562.75,737.7z"/>
	<path class="st15" d="M502.38,741.38c0.52-13.97,1.08-26.27,1.5-34.64c-9.97-1.05-21.81-0.99-34.41,0.41
		c-8.57,0.95-16.65,2.43-23.94,4.28l3.35,36.51c7.7,0.26,16.16-0.06,24.99-1.04C484.27,745.75,493.97,743.82,502.38,741.38z"/>
	<path class="st4" d="M412.02,535.53l14.11,196.83c0,0,35.91,2.42,47.79,1.14c12.47-1.34,48.77-11.85,48.77-11.85l-3.08-64.07
		l14.02,62.86c0,0,33.55,2.69,44.65,1.49c11.57-1.25,45.11-11.45,45.11-11.45l-30.65-195L412.02,535.53z"/>
	<path class="st6" d="M473.83,736.09"/>
	<path class="st8" d="M510.31,829.31"/>
	<path class="st8" d="M511.05,835.93"/>
	<polygon class="st4" points="471.76,957.91 510.44,953.61 515.59,969.79 523.22,992.13 508.09,1018.29 478.82,1021.54 
		458.46,1023.8 462.56,991.13 	"/>
	<polygon class="st4" points="641.02,939.13 602.34,943.42 600.86,960.33 598.31,983.8 618.81,1006.01 648.08,1002.76 
		668.44,1000.5 657.27,969.53 	"/>
	<path class="st7" d="M473.87,746.91c-8.83,0.98-17.29,1.3-24.99,1.04l8.2,89.2l15.96,120.62l37.89,4.81c0,0-4.96-93.41-8.32-121.46
		c-2.46-20.56-1.5-65.23-0.23-99.73C493.97,743.82,484.27,745.75,473.87,746.91z"/>
</g>
<g id="Superior_desbalanceado" class="st3">
	<circle class="st7" cx="856.69" cy="439.37" r="23.05"/>
	<path class="st7" d="M651.11,362.49c0,0,88.62,19.7,118.1,28.91c21.35,6.67,88.73,29.68,88.73,29.68l-16.13,26.2l-199.62-31.1
		L651.11,362.49z"/>
	<path class="st15" d="M857.25,452.74c10.95-0.5,19.82-7.18,21.77-15.67c0.44,1.33,0.71,2.72,0.78,4.16
		c0.47,10.4-9.46,19.3-22.17,19.88c-12.72,0.58-23.41-7.39-23.88-17.8c-0.07-1.44,0.09-2.85,0.4-4.21
		C836.87,447.39,846.3,453.24,857.25,452.74z"/>
	<path class="st21" d="M632.8,361.21c2.12-5.52,2.1-11.49,0.32-17.47c22,8.5,65.15,20.88,85.88,32.26c5.08,31.5-2.73,22.14-10,52
		c-78-16-92-26-144.78-15.5c4.02-11.51,8.19-22.94,12.5-34.31C602.29,384.87,626.33,378.05,632.8,361.21z"/>
	<circle class="st7" cx="300.93" cy="242.49" r="23.05"/>
	<path class="st7" d="M515.35,312.21c0,0-82.11-38.72-111.06-49.5c-20.96-7.8-93.15-35.45-93.15-35.45l-3.3,30.6l181.67,102.25
		L515.35,312.21z"/>
	<path class="st15" d="M292.29,252.71c-8.35-7.1-11.27-17.81-7.61-25.72c-1.16,0.79-2.23,1.71-3.16,2.81
		c-6.75,7.93-4.35,21.05,5.34,29.3c9.7,8.25,23.03,8.5,29.77,0.56c0.93-1.1,1.68-2.3,2.26-3.58
		C311.68,260.97,300.64,259.82,292.29,252.71z"/>
	<path class="st21" d="M530.61,322.41c1.71-5.66,5.38-10.37,10.45-14c-22.6-6.77-64.29-23.41-87.64-27.11
		c-23.31,21.78-11.4,19.17-23.95,47.23c71.45,35.14,88.64,35.81,123.93,76.44c3.88-11.56,7.58-23.15,11.14-34.77
		C540.23,359.8,525.4,339.69,530.61,322.41z"/>
	<path class="st7" d="M628.39,305.53c2.71-16.66,7.25-31.91,12.9-44.59l-68.47-11.13c1.34,13.82,0.82,29.72-1.88,46.38
		c-3.63,22.34-10.57,42.13-19.03,56.61l-0.66,4.08l77.81,12.64l0.18-1.11C625.13,351.57,624.52,329.33,628.39,305.53z"/>
	<path class="st22" d="M641.01,266.42l-68.47-11.13c1.34,13.82,0.82,29.72-1.88,46.38c-0.25,1.54-0.52,3.06-0.8,4.57
		c8.47,3.89,17.97,6.82,28.17,8.48c10.19,1.66,20.13,1.88,29.4,0.88c0.21-1.52,0.44-3.05,0.69-4.59
		C630.82,294.35,635.37,279.1,641.01,266.42z"/>
	<path class="st23" d="M624.54,291.39L600,287.4l-24.54-3.99c-13.5-2.19-24.87-9.71-32.32-20.05c-7.45-10.34-10.98-23.51-8.78-37.01
		c0,0,11.34-39.57,13.54-53.09s3.97-54.65,3.97-54.65c2.19-13.5,9.71-24.87,20.05-32.32c3.16-2.28,39.42-19.38,43.74-19.98
		c3.16-0.44-9.69,19.48-7.71,17.18c5.41-6.28,37.8-16.72,48.6-11.76l-13.11,12.61L658,85.49c5.99,0.97,28.12,0.88,28.12,0.88
		s-7.83,2.9-5.15,8.99c1.05,2.38,5.88,6.14,9.35,10.17c7.45,10.34,10.98,23.51,8.78,37.01c0,0-10.15,39.79-12.34,53.28
		c-2.19,13.5-5.16,54.45-5.16,54.45c-2.19,13.5-9.71,24.87-20.05,32.32C651.21,290.05,638.04,293.58,624.54,291.39z"/>
	<path class="st24" d="M660.98,278.88c-10.34,7.45-16.53,3.46-28.12-0.88c0,0-19.71-12.92-28.37-14.44
		c-8.87-1.55-32.87,5.72-32.87,5.72c-13.56,0.25-18.92-1.32-26.37-11.66c-7.45-10.34-13.09-17.76-10.89-31.26
		c-2.19,13.5,1.33,26.66,8.78,37.01c7.45,10.34,18.82,17.86,32.32,20.05L600,287.4l24.54,3.99c13.5,2.19,26.66-1.33,37.01-8.78
		c7.25-5.22,13.1-12.37,16.71-20.83C673.72,271.39,666.59,273.22,660.98,278.88z"/>
	<path class="st7" d="M627.67,236.6c0,0-10.3-7.79-14.94-8.57c-4.74-0.8-17.36,3.32-17.36,3.32l-5.37-0.87
		c-10.36-1.68-19.23-6.58-25.18-13.12s-8.97-14.72-7.63-22.96c0,0,7.68-24.03,9.02-32.29c1.34-8.25,1.67-33.48,1.67-33.48
		c0.75-4.6,6.68-5.76,9.68-9.28c2.36-2.78,4.15-14.31,7.55-16.21c3.61-2.02,6.37,10.16,10.77,9.33c5.01-0.94,9.03-8.57,14.55-7.67
		l-6.56,11.43c0,0,14.52-11.36,18.54-8.26c1.92,1.48-1.56,9.58-1.56,9.58l26.86-6.52c5.18,0.84,14.45,16.92,14.62,4.63
		c0.07-4.82,8.03,5.05,10.93,8.38c3.3,3.78,1.77,6.9,5.73,8.73c4.46,2.07,2.69,9.36,1.9,14.23c0,0-6.76,24.2-8.1,32.44
		s-2.59,33.33-2.59,33.33c-1.34,8.24-6.79,15.04-14.51,19.36C647.99,236.45,638.03,238.29,627.67,236.6z"/>
	<path class="st25" d="M659.28,354.21c-9.2-4.7-18.51-9.17-27.93-13.45c-8.63,1.79-24.25-0.69-40.96-7.11
		c-16.71-6.42-29.98-15.03-35.19-22.14c-9.85-3.12-19.77-6.03-29.75-8.7c-51.61,77.76-91.73,153.73-119.57,235.8
		C445,588,533,591,590.31,609.44C624.55,529.83,645.58,446.53,659.28,354.21z"/>
</g>
<g id="Superior_normal" class="st3">
	<circle class="st7" cx="643.2" cy="581.63" r="23.05"/>
	<path class="st7" d="M661.42,366.66c0,0,5.55,90.62,4.83,121.49c-0.52,22.36-5.12,89.63-5.12,89.63l-47.38-12.8l-6.4-192.07
		L661.42,366.66z"/>
	<path class="st15" d="M643.2,596.29c10.97,0,20.13-6.27,22.46-14.67c0.37,1.35,0.59,2.75,0.59,4.19
		c0,10.41-10.32,18.86-23.05,18.86c-12.73,0-23.05-8.44-23.05-18.86c0-1.44,0.22-2.84,0.59-4.19
		C623.08,590.02,632.24,596.29,643.2,596.29z"/>
	<circle class="st7" cx="415.28" cy="581.63" r="23.05"/>
	<path class="st7" d="M397.07,366.66c0,0-5.55,90.62-4.83,121.49c0.52,22.36,5.12,89.63,5.12,89.63l47.38-12.8l6.4-192.07
		L397.07,366.66z"/>
	<path class="st21" d="M479.31,323.62c0-5.91,2.16-11.48,5.96-16.42c-23.59,0.04-47.17,1.65-70.6,4.84
		c-16.03,27.58-18.51,62.4-22.43,92.89c41.55,2,97.31,20.49,132.71-8.84c0.37-12.19,0.58-24.35,0.63-36.51
		C499.31,356.64,479.31,341.66,479.31,323.62z"/>
	<path class="st21" d="M579.35,323.62c0-5.91-2.16-11.48-5.96-16.42c23.59,0.04,47.17,1.65,70.6,4.84
		c16.03,27.58,18.51,62.4,22.43,92.89c-41.55,2-97.31,20.49-132.71-8.84c-0.37-12.19-0.58-24.35-0.63-36.51
		C559.35,356.64,579.35,341.66,579.35,323.62z"/>
	<path class="st7" d="M561.13,277.2c0-16.88,2.04-32.66,5.58-46.09h-69.37c3.54,13.43,5.58,29.2,5.58,46.09
		c0,22.64-3.67,43.28-9.7,58.93v4.13h78.83v-1.13C565.3,323.17,561.13,301.32,561.13,277.2z"/>
	<path class="st22" d="M567.32,236.57h-69.37c3.54,13.43,5.58,29.2,5.58,46.09c0,1.56-0.02,3.1-0.06,4.64
		c8.99,2.48,18.83,3.85,29.16,3.85c10.33,0,20.17-1.37,29.16-3.85c-0.03-1.54-0.05-3.08-0.05-4.64
		C561.74,265.77,563.78,250,567.32,236.57z"/>
	<path class="st23" d="M555.07,263.86H530.2h-24.86c-13.67,0-26.1-5.59-35.12-14.61c-9.01-9.01-14.61-21.44-14.61-35.12
		c0,0,4.85-40.88,4.85-54.57s-4.85-54.57-4.85-54.57c0-13.67,5.59-26.1,14.61-35.12c2.76-2.76,35.8-25.45,39.97-26.73
		c3.05-0.94-6.44,20.78-4.85,18.19c4.33-7.06,34.63-22.57,46.09-19.4l-10.91,14.55l14.55-1.21c6.06,0,27.89-3.64,27.89-3.64
		s-7.26,4.12-3.64,9.7c1.42,2.18,6.78,5.12,10.86,8.54c9.01,9.01,14.61,21.44,14.61,35.12c0,0-3.64,40.9-3.64,54.57
		s3.64,54.57,3.64,54.57c0,13.67-5.59,26.1-14.61,35.12C581.17,258.26,568.74,263.86,555.07,263.86z"/>
	<path class="st24" d="M589.02,245.67c-9.01,9.01-15.77,6.06-27.89,3.64c0,0-21.53-9.6-30.32-9.7c-9-0.11-31.53,10.91-31.53,10.91
		c-13.34,2.43-18.88,1.74-27.89-7.28c-9.01-9.01-15.77-15.43-15.77-29.11c0,13.67,5.59,26.1,14.61,35.12
		c9.01,9.01,21.44,14.61,35.12,14.61h24.86h24.86c13.67,0,26.11-5.59,35.12-14.61c6.32-6.32,10.94-14.31,13.15-23.24
		C600.4,236.23,593.65,239.18,589.02,245.67z"/>
	<path class="st7" d="M549.36,209.28c0,0-11.42-6.03-16.12-6.06c-4.81-0.03-16.6,6.06-16.6,6.06h-5.44
		c-10.5,0-20.04-3.41-26.96-8.92c-6.92-5.5-11.21-13.09-11.21-21.44c0,0,3.72-24.95,3.72-33.32c0-8.36-3.72-33.32-3.72-33.32
		c0-4.66,5.67-6.76,8.06-10.71c1.89-3.13,1.8-14.79,4.85-17.21c3.24-2.57,7.92,9,12.13,7.48c4.79-1.73,7.54-9.9,13.13-9.9
		l-4.64,12.34c0,0,12.51-13.54,16.98-11.13c2.13,1.15,0,9.7,0,9.7L549,82.11c5.25,0,16.98,14.38,15.18,2.23
		c-0.71-4.76,8.73,3.7,12.14,6.52c3.86,3.21,2.86,6.53,7.05,7.7c4.73,1.32,4.16,8.8,4.16,13.74c0,0-2.79,24.97-2.79,33.32
		s2.79,33.32,2.79,33.32c0,8.35-4.29,15.94-11.21,21.44C569.4,205.87,559.86,209.28,549.36,209.28z"/>
	<path class="st25" d="M601.56,307.59c-10.27-1.09-20.57-1.92-30.89-2.54c-7.41,4.77-22.89,8.05-40.79,8.05
		c-17.9,0-33.38-3.28-40.79-8.05c-10.32,0.62-20.62,1.45-30.89,2.54c-20.31,91.1-30.53,176.4-27.1,262.99
		c65.27,9.6,132.29,9.6,197.56,0C632.09,483.99,621.87,398.69,601.56,307.59z"/>
	<path class="st15" d="M415.28,596.29c-10.97,0-20.13-6.27-22.46-14.67c-0.37,1.35-0.59,2.75-0.59,4.19
		c0,10.41,10.32,18.86,23.05,18.86c12.73,0,23.05-8.44,23.05-18.86c0-1.44-0.22-2.84-0.59-4.19
		C435.41,590.02,426.25,596.29,415.28,596.29z"/>
</g>
<g id="Superior_sentado" class="st3">
	<path class="st21" d="M489.95,525.47c0-4.3,1.57-8.35,4.33-11.94c-17.15,0.03-34.3,1.2-51.33,3.52
		c-11.66,20.06-13.46,45.37-16.31,67.54c30.21,1.46,70.76,14.9,96.49-6.43c0.27-8.86,0.42-17.71,0.46-26.55
		C504.49,549.48,489.95,538.59,489.95,525.47z"/>
	<path class="st21" d="M562.69,525.47c0-4.3-1.57-8.35-4.33-11.94c17.15,0.03,34.3,1.2,51.33,3.52
		c11.66,20.06,13.46,45.37,16.31,67.54c-30.21,1.46-70.76,14.9-96.49-6.43c-0.27-8.86-0.42-17.71-0.46-26.55
		C548.15,549.48,562.69,538.59,562.69,525.47z"/>
	<path class="st7" d="M549.44,491.72c0-12.28,1.48-23.75,4.06-33.51h-50.44c2.57,9.76,4.06,21.23,4.06,33.51
		c0,16.46-2.67,31.47-7.05,42.85v3h57.32v-0.82C552.47,525.15,549.44,509.26,549.44,491.72z"/>
	<path class="st22" d="M553.94,462.18H503.5c2.57,9.76,4.06,21.23,4.06,33.51c0,1.13-0.02,2.26-0.04,3.37
		c6.53,1.8,13.69,2.8,21.2,2.8c7.51,0,14.67-1,21.2-2.8c-0.02-1.12-0.04-2.24-0.04-3.37C549.88,483.41,551.37,471.94,553.94,462.18z
		"/>
	<path class="st23" d="M545.03,482.02h-18.08h-18.08c-9.94,0-18.98-4.07-25.53-10.62c-6.55-6.55-10.62-15.59-10.62-25.53
		c0,0,3.53-29.72,3.53-39.68c0-9.96-3.53-39.68-3.53-39.68c0-9.94,4.07-18.98,10.62-25.53c2.01-2.01,26.03-18.5,29.06-19.44
		c2.22-0.68-4.68,15.11-3.53,13.23c3.15-5.14,25.18-16.41,33.51-14.11l-7.94,10.58l10.58-0.88c4.41,0,20.28-2.65,20.28-2.65
		s-5.28,3-2.65,7.05c1.03,1.59,4.93,3.72,7.9,6.21c6.55,6.55,10.62,15.59,10.62,25.53c0,0-2.65,29.74-2.65,39.68
		c0,9.94,2.65,39.68,2.65,39.68c0,9.94-4.07,18.98-10.62,25.53C564.01,477.96,554.98,482.02,545.03,482.02z"/>
	<path class="st24" d="M569.72,468.8c-6.55,6.55-11.46,4.41-20.28,2.65c0,0-15.65-6.98-22.05-7.05c-6.55-0.08-22.93,7.94-22.93,7.94
		c-9.7,1.76-13.73,1.26-20.28-5.29c-6.55-6.55-11.46-11.22-11.46-21.16c0,9.94,4.07,18.98,10.62,25.53
		c6.55,6.55,15.59,10.62,25.53,10.62h18.08h18.08c9.94,0,18.98-4.07,25.53-10.62c4.59-4.59,7.96-10.41,9.56-16.89
		C578,461.93,573.09,464.08,569.72,468.8z"/>
	<path class="st7" d="M540.88,442.34c0,0-8.3-4.39-11.72-4.41c-3.5-0.02-12.07,4.41-12.07,4.41h-3.96c-7.63,0-14.57-2.48-19.6-6.48
		c-5.03-4-8.15-9.52-8.15-15.59c0,0,2.71-18.14,2.71-24.22s-2.71-24.22-2.71-24.22c0-3.39,4.13-4.91,5.86-7.79
		c1.37-2.27,1.31-10.75,3.53-12.52c2.35-1.87,5.76,6.55,8.82,5.44c3.49-1.26,5.48-7.2,9.54-7.2l-3.37,8.97c0,0,9.1-9.84,12.35-8.09
		c1.55,0.84,0,7.05,0,7.05l18.52-7.81c3.82,0,12.35,10.46,11.04,1.62c-0.51-3.46,6.35,2.69,8.82,4.74c2.81,2.33,2.08,4.74,5.13,5.6
		c3.44,0.96,3.02,6.4,3.02,9.99c0,0-2.03,18.15-2.03,24.22s2.03,24.22,2.03,24.22c0,6.07-3.12,11.59-8.15,15.59
		C555.45,439.86,548.52,442.34,540.88,442.34z"/>
	<path class="st25" d="M578.84,513.82c-7.47-0.79-14.96-1.4-22.46-1.85c-5.39,3.47-16.64,5.85-29.66,5.85
		c-13.02,0-24.27-2.39-29.66-5.85c-7.5,0.45-14.99,1.06-22.46,1.85c-14.77,66.24-22.2,128.26-19.7,191.22
		C490,697,505.02,709.93,526,715c29,7,43-19,72.55-9.96C601.04,642.08,593.61,580.06,578.84,513.82z"/>
	<path class="st26" d="M624.91,616.05c0,0-64.55-5.24-86.35-8.55c-15.78-2.39-63.03-11.38-63.03-11.38l12.72-26.49l136.41,14.24
		L624.91,616.05z"/>
	<circle class="st27" cx="477.55" cy="582.81" r="16.13"/>
	<path class="st15" d="M467.09,581.64c-1.05,7.9,2.6,15.1,8.43,17.59c-1.01,0.14-2.04,0.16-3.08,0.03
		c-7.51-0.99-12.61-9.24-11.4-18.41c1.21-9.18,8.28-15.81,15.79-14.82c1.04,0.14,2.03,0.43,2.96,0.83
		C473.53,567.73,468.14,573.74,467.09,581.64z"/>
	<path class="st7" d="M428.28,584.93c0,0,64.41-6.83,86.44-7.62c15.95-0.58,64.05-0.51,64.05-0.51l-7.59,28.39L434.5,616.51
		L428.28,584.93z"/>
	<circle class="st28" cx="577.1" cy="585.87" r="16.13"/>
	<path class="st15" d="M580.41,600.08c7.93-0.86,14.05-6.12,15.08-12.37c0.38,0.95,0.64,1.94,0.76,2.98
		c0.82,7.53-5.98,14.44-15.18,15.44c-9.2,1-17.32-4.29-18.14-11.82c-0.11-1.04-0.07-2.07,0.1-3.08
		C565.37,597.13,572.48,600.94,580.41,600.08z"/>
</g>
<g id="Superior_levantado">
	<path class="st29" d="M478.67,320.07c0-5.84,2.15-11.36,5.93-16.24c-23.48,0.04-46.96,1.63-70.28,4.79
		c-15.96,27.29-18.43,61.73-22.33,91.88c41.36,1.98,96.87,20.27,132.1-8.74c0.37-12.05,0.57-24.09,0.62-36.11
		C498.58,352.73,478.67,337.92,478.67,320.07z"/>
	<path class="st29" d="M578.26,320.07c0-5.84-2.15-11.36-5.93-16.24c23.48,0.04,46.96,1.63,70.28,4.79
		c15.96,27.29,18.43,61.73,22.33,91.88c-41.36,1.98-96.87,20.27-132.1-8.74c-0.37-12.05-0.57-24.09-0.62-36.11
		C558.35,352.73,578.26,337.92,578.26,320.07z"/>
	<path class="st9" d="M560.12,274.15c0-16.7,2.03-32.31,5.55-45.59h-69.06c3.52,13.28,5.55,28.89,5.55,45.59
		c0,22.39-3.65,42.81-9.66,58.3v4.09h78.47v-1.12C564.27,319.62,560.12,298,560.12,274.15z"/>
	<path class="st30" d="M566.28,233.96h-69.06c3.52,13.28,5.55,28.89,5.55,45.59c0,1.54-0.02,3.07-0.06,4.59
		c8.95,2.45,18.75,3.81,29.03,3.81c10.28,0,20.08-1.36,29.03-3.81c-0.03-1.52-0.05-3.05-0.05-4.59
		C560.72,262.85,562.76,247.24,566.28,233.96z"/>
	<path class="st31" d="M554.08,260.95h-24.75h-24.75c-13.61,0-25.99-5.53-34.96-14.45c-8.97-8.91-14.54-21.21-14.54-34.74
		c0,0,4.83-40.44,4.83-53.98c0-13.55-4.83-53.98-4.83-53.98c0-13.53,5.57-25.82,14.54-34.74c2.75-2.73,35.64-25.17,39.79-26.44
		c3.04-0.93-6.41,20.56-4.83,17.99c4.31-6.99,34.47-22.33,45.87-19.19l-10.86,14.4l14.49-1.2c6.04,0,27.77-3.6,27.77-3.6
		s-7.23,4.08-3.62,9.6c1.41,2.16,6.75,5.06,10.81,8.45c8.97,8.91,14.54,21.21,14.54,34.74c0,0-3.62,40.46-3.62,53.98
		c0,13.53,3.62,53.98,3.62,53.98c0,13.53-5.57,25.82-14.54,34.74C580.07,255.42,567.69,260.95,554.08,260.95z"/>
	<path class="st32" d="M587.89,242.96c-8.97,8.91-15.69,6-27.77,3.6c0,0-21.43-9.49-30.18-9.6c-8.96-0.11-31.39,10.8-31.39,10.8
		c-13.28,2.4-18.79,1.72-27.77-7.2c-8.97-8.91-15.69-15.27-15.69-28.79c0,13.53,5.57,25.82,14.54,34.74
		c8.97,8.91,21.35,14.45,34.96,14.45h24.75h24.75c13.61,0,25.99-5.53,34.96-14.45c6.29-6.25,10.89-14.16,13.09-22.98
		C599.21,233.62,592.5,236.55,587.89,242.96z"/>
	<path class="st9" d="M548.4,206.97c0,0-11.37-5.97-16.05-6c-4.79-0.03-16.53,6-16.53,6h-5.42c-10.45,0-19.95-3.38-26.83-8.82
		c-6.89-5.44-11.16-12.95-11.16-21.21c0,0,3.71-24.68,3.71-32.96s-3.71-32.96-3.71-32.96c0-4.61,5.65-6.68,8.02-10.6
		c1.88-3.09,1.79-14.63,4.83-17.03c3.22-2.55,7.88,8.91,12.07,7.4c4.77-1.72,7.51-9.8,13.07-9.8l-4.62,12.2c0,0,12.46-13.39,16.9-11
		c2.12,1.14,0,9.6,0,9.6l25.35-10.63c5.22,0,16.9,14.23,15.11,2.2c-0.7-4.71,8.69,3.66,12.08,6.45c3.85,3.17,2.85,6.45,7.02,7.62
		c4.71,1.31,4.14,8.71,4.14,13.59c0,0-2.78,24.7-2.78,32.96s2.78,32.96,2.78,32.96c0,8.26-4.27,15.76-11.16,21.21
		C568.35,203.59,558.85,206.97,548.4,206.97z"/>
	<path class="st33" d="M600.37,304.21c-10.22-1.07-20.48-1.9-30.75-2.51c-7.38,4.72-22.78,7.96-40.6,7.96
		c-17.82,0-33.23-3.25-40.6-7.96c-10.27,0.61-20.53,1.44-30.75,2.51c-20.22,90.11-30.39,174.49-26.98,260.15
		c48.05-10.94,68.61,6.65,97.34,13.55c39.7,9.52,58.87-25.85,99.32-13.55C630.76,478.71,620.58,394.33,600.37,304.21z"/>
	<path class="st34" d="M663.44,443.29c0,0-88.38-7.13-118.22-11.63c-21.61-3.26-86.3-15.49-86.3-15.49l17.42-36.03L663.1,399.5
		L663.44,443.29z"/>
	<ellipse class="st35" cx="461.7" cy="398.07" rx="22.08" ry="21.94"/>
	<path class="st10" d="M447.38,396.48c-1.43,10.75,3.56,20.55,11.54,23.92c-1.38,0.19-2.79,0.22-4.21,0.04
		c-10.28-1.35-17.26-12.57-15.6-25.05c1.66-12.48,11.34-21.51,21.62-20.16c1.42,0.19,2.78,0.58,4.06,1.12
		C456.19,377.56,448.81,385.72,447.38,396.48z"/>
	<path class="st9" d="M394.25,400.96c0,0,88.17-9.29,118.34-10.37c21.84-0.78,87.69-0.69,87.69-0.69l-10.39,38.62l-187.13,15.4
		L394.25,400.96z"/>
	<ellipse class="st36" cx="597.98" cy="402.23" rx="22.08" ry="21.94"/>
	<path class="st10" d="M602.52,421.56c10.85-1.17,19.24-8.32,20.64-16.83c0.52,1.29,0.88,2.64,1.04,4.06
		c1.12,10.24-8.18,19.65-20.78,21.01s-23.72-5.84-24.84-16.08c-0.16-1.42-0.09-2.82,0.13-4.18
		C581.93,417.55,591.67,422.73,602.52,421.56z"/>
</g>
<g id="Capa_15" class="st3">
	<g class="st37">
		<g>
			<path d="M334.3,547.61l51.73,59.67l-75.85,122.19h-92.36L334.3,547.61z M350.17,593.32L222.9,400.03h95.85l79.03,132.98
				l129.17,196.46h-95.53L350.17,593.32z M365.08,516.83l60.94-116.8h95.85L416.18,577.77L365.08,516.83z"/>
			<path d="M650.89,717.89c-19.79-10.9-35.66-26.76-47.61-47.61c-11.96-20.84-18.88-45.54-20.79-74.11v-0.32h86.96v0.32
				c1.69,16.93,6.87,30.1,15.55,39.51c8.67,9.42,20,14.12,33.96,14.12c15.23,0,27.03-4.97,35.39-14.92
				c8.36-9.94,12.54-24.01,12.54-42.21v-38.72c0-18.19-3.76-32.21-11.27-42.05c-7.51-9.84-18.04-14.76-31.58-14.76
				c-12.49,0-23.12,3.17-31.9,9.52c-8.78,6.35-14.87,15.23-18.25,26.66h-81.25V268h247.88v83.79H679.61v81.57
				c6.56-6.35,15.5-11.37,26.82-15.08c11.32-3.7,22.58-5.55,33.8-5.55c23.91,0,44.38,5.5,61.41,16.5
				c17.03,11,29.99,27.09,38.88,48.24c8.89,21.16,13.33,46.66,13.33,76.49v38.72c0,29.83-5.35,55.33-16.03,76.49
				c-10.69,21.16-26.18,37.29-46.5,48.4c-20.31,11.11-44.86,16.66-73.63,16.66C692.94,734.24,670.67,728.79,650.89,717.89z"/>
		</g>
	</g>
</g>
<g id="Capa_13" class="st3">
	<path class="st38" d="M623,402H442c-2.75,0-5-2.25-5-5v-13c0-2.75,2.25-5,5-5h181c2.75,0,5,2.25,5,5v13
		C628,399.75,625.75,402,623,402z"/>
	<path class="st39" d="M550.5,430.5h-35c-2.75,0-5-2.25-5-5v-70c0-2.75,2.25-5,5-5h35c2.75,0,5,2.25,5,5v70
		C555.5,428.25,553.25,430.5,550.5,430.5z"/>
	<path class="st40" d="M547.69,425.5h-29.38c-2.75,0-5-2.25-5-5v-60c0-2.75,2.25-5,5-5h29.38c2.75,0,5,2.25,5,5v60
		C552.69,423.25,550.44,425.5,547.69,425.5z"/>
	<line class="st41" x1="526.5" y1="352.5" x2="540.5" y2="352.5"/>
	<path class="st21" d="M666.42,403.93c-3.92-30.48-6.4-65.3-22.43-92.89c-14.06-1.92-28.19-3.25-42.33-4.03
		c7.74,34.77,14.01,68.69,18.61,102.17C636.39,407.21,652.23,404.61,666.42,403.93z"/>
	<path class="st21" d="M392.65,403.93c3.92-30.48,6.4-65.3,22.43-92.89c14.06-1.92,28.19-3.25,42.33-4.03
		c-7.74,34.77-14.01,68.69-18.61,102.17C422.69,407.21,406.84,404.61,392.65,403.93z"/>
	<circle class="st42" cx="524" cy="353" r="1"/>
</g>
</svg>
