<?xml version="1.0" encoding="utf-8"?>
<!-- Generator: Adobe Illustrator 23.0.1, SVG Export Plug-In . SVG Version: 6.00 Build 0)  -->
<svg version="1.1" xmlns="http://www.w3.org/2000/svg" xmlns:xlink="http://www.w3.org/1999/xlink" x="0px" y="0px"
	 viewBox="0 0 1068 1068" style="enable-background:new 0 0 1068 1068;" xml:space="preserve">
<style type="text/css">
	.st0{fill:#F2F2F2;}
	.st1{fill:#603813;}
	.st2{fill:#754C24;}
	.st3{fill:#FFC794;}
	.st4{fill:#CC9F76;}
	.st5{fill:#4D4D4D;}
	.st6{fill:#CCCCCC;}
	.st7{fill:#FBB03B;}
	.st8{fill:#1976D2;}
	.st9{opacity:0.69;fill:#CC9F76;}
	.st10{fill:#C2C2C2;}
	.st11{fill:#A8A8A8;}
	.st12{fill:#2196F3;}
	.st13{fill:#E3B184;}
	.st14{fill:#E6B385;}
	.st15{fill:#FFC693;}
</style>
<g id="Capa_14">
	<circle class="st0" cx="535" cy="534" r="534"/>
</g>
<g id="silla">
	<rect x="601.3" y="758.18" class="st1" width="27.68" height="206.57"/>
	<rect x="432.43" y="758.18" class="st1" width="27.68" height="206.57"/>
	<rect x="409.59" y="771.17" class="st2" width="245.41" height="33.21"/>
	<rect x="412.59" y="778.18" class="st2" width="27.68" height="226.82"/>
	<rect x="623.73" y="778.18" class="st2" width="27.68" height="226.82"/>
	<g>
		<path class="st1" d="M653.9,771c-81.27,0-162.53,0-243.8,0c10.6-16.67,21.2-33.33,31.8-50c60.07,0,120.13,0,180.2,0
			C632.7,737.67,643.3,754.33,653.9,771z"/>
	</g>
	<rect x="440" y="469" class="st2" width="184" height="26"/>
	<rect x="440" y="469" class="st2" width="20" height="258"/>
	<rect x="604" y="469" class="st2" width="20" height="258"/>
	<rect x="522" y="469" class="st2" width="20" height="258"/>
</g>
<g id="Inferior_normal">
	<path class="st3" d="M581.74,977.12l37.13-8.96l2.56-121.64l-2.56-135.73h-60.18c0,0,18.24,108.45,17.93,144.69
		C576.37,883.74,581.74,977.12,581.74,977.12z"/>
	<path class="st4" d="M565.85,751.65c-2.05-13.83-3.97-25.99-5.31-34.26c9.79-2.14,21.57-3.39,34.25-3.39
		c8.62,0,16.82,0.58,24.26,1.62l0.69,36.66c-7.63,1.1-16.07,1.72-24.95,1.72C584.33,754,574.48,753.15,565.85,751.65z"/>
	<path class="st4" d="M505.44,748.65c2.05-13.83,3.97-25.99,5.31-34.26c-9.79-2.14-21.57-3.39-34.25-3.39
		c-8.62,0-16.82,0.58-24.26,1.62l-0.69,36.66c7.63,1.1,16.07,1.72,24.95,1.72C486.97,751,496.82,750.15,505.44,748.65z"/>
	<path class="st5" d="M438.33,534.09l-7.68,197.19c0,0,35.42,6.36,47.38,6.4c12.55,0.04,49.78-6.4,49.78-6.4l4-64.02l7,64.02
		c0,0,33.05,6.37,44.22,6.4c11.63,0.03,46.1-6.4,46.1-6.4l-8.96-197.19H438.33z"/>
	<path class="st6" d="M477.65,740.24"/>
	<path class="st7" d="M503.63,836.92"/>
	<path class="st7" d="M503.63,843.57"/>
	<polygon class="st5" points="451.14,960.48 490.05,960.48 493.39,977.12 498.51,1000.17 480.59,1024.5 451.14,1024.5 
		430.65,1024.5 438.33,992.49 	"/>
	<polygon class="st5" points="621.43,960.48 582.52,960.48 579.18,977.12 574.06,1000.17 591.98,1024.5 621.43,1024.5 
		641.92,1024.5 634.24,992.49 	"/>
	<path class="st3" d="M476.5,751c-8.89,0-17.33-0.62-24.95-1.72l-1.69,89.56l2.56,121.64l37.13,8.96c0,0,5.37-93.38,5.12-121.64
		c-0.18-20.71,5.7-64.99,10.77-99.15C496.82,750.15,486.97,751,476.5,751z"/>
</g>
<g id="Superior_levantado">
	<path class="st8" d="M478.67,320.07c0-5.84,2.15-11.36,5.93-16.24c-23.48,0.04-46.96,1.63-70.28,4.79
		c-15.96,27.29-18.43,61.73-22.33,91.88c41.36,1.98,96.87,20.27,132.1-8.74c0.37-12.05,0.57-24.09,0.62-36.11
		C498.58,352.73,478.67,337.92,478.67,320.07z"/>
	<path class="st8" d="M578.26,320.07c0-5.84-2.15-11.36-5.93-16.24c23.48,0.04,46.96,1.63,70.28,4.79
		c15.96,27.29,18.43,61.73,22.33,91.88c-41.36,1.98-96.87,20.27-132.1-8.74c-0.37-12.05-0.57-24.09-0.62-36.11
		C558.35,352.73,578.26,337.92,578.26,320.07z"/>
	<path class="st3" d="M560.12,274.15c0-16.7,2.03-32.31,5.55-45.59h-69.06c3.52,13.28,5.55,28.89,5.55,45.59
		c0,22.39-3.65,42.81-9.66,58.3v4.09h78.47v-1.12C564.27,319.62,560.12,298,560.12,274.15z"/>
	<path class="st9" d="M566.28,233.96h-69.06c3.52,13.28,5.55,28.89,5.55,45.59c0,1.54-0.02,3.07-0.06,4.59
		c8.95,2.45,18.75,3.81,29.03,3.81c10.28,0,20.08-1.36,29.03-3.81c-0.03-1.52-0.05-3.05-0.05-4.59
		C560.72,262.85,562.76,247.24,566.28,233.96z"/>
	<path class="st10" d="M554.08,260.95h-24.75h-24.75c-13.61,0-25.99-5.53-34.96-14.45c-8.97-8.91-14.54-21.21-14.54-34.74
		c0,0,4.83-40.44,4.83-53.98c0-13.55-4.83-53.98-4.83-53.98c0-13.53,5.57-25.82,14.54-34.74c2.75-2.73,35.64-25.17,39.79-26.44
		c3.04-0.93-6.41,20.56-4.83,17.99c4.31-6.99,34.47-22.33,45.87-19.19l-10.86,14.4l14.49-1.2c6.04,0,27.77-3.6,27.77-3.6
		s-7.23,4.08-3.62,9.6c1.41,2.16,6.75,5.06,10.81,8.45c8.97,8.91,14.54,21.21,14.54,34.74c0,0-3.62,40.46-3.62,53.98
		c0,13.53,3.62,53.98,3.62,53.98c0,13.53-5.57,25.82-14.54,34.74C580.07,255.42,567.69,260.95,554.08,260.95z"/>
	<path class="st11" d="M587.89,242.96c-8.97,8.91-15.69,6-27.77,3.6c0,0-21.43-9.49-30.18-9.6c-8.96-0.11-31.39,10.8-31.39,10.8
		c-13.28,2.4-18.79,1.72-27.77-7.2c-8.97-8.91-15.69-15.27-15.69-28.79c0,13.53,5.57,25.82,14.54,34.74
		c8.97,8.91,21.35,14.45,34.96,14.45h24.75h24.75c13.61,0,25.99-5.53,34.96-14.45c6.29-6.25,10.89-14.16,13.09-22.98
		C599.21,233.62,592.5,236.55,587.89,242.96z"/>
	<path class="st3" d="M548.4,206.97c0,0-11.37-5.97-16.05-6c-4.79-0.03-16.53,6-16.53,6h-5.42c-10.45,0-19.95-3.38-26.83-8.82
		c-6.89-5.44-11.16-12.95-11.16-21.21c0,0,3.71-24.68,3.71-32.96s-3.71-32.96-3.71-32.96c0-4.61,5.65-6.68,8.02-10.6
		c1.88-3.09,1.79-14.63,4.83-17.03c3.22-2.55,7.88,8.91,12.07,7.4c4.77-1.72,7.51-9.8,13.07-9.8l-4.62,12.2c0,0,12.46-13.39,16.9-11
		c2.12,1.14,0,9.6,0,9.6l25.35-10.63c5.22,0,16.9,14.23,15.11,2.2c-0.7-4.71,8.69,3.66,12.08,6.45c3.85,3.17,2.85,6.45,7.02,7.62
		c4.71,1.31,4.14,8.71,4.14,13.59c0,0-2.78,24.7-2.78,32.96s2.78,32.96,2.78,32.96c0,8.26-4.27,15.76-11.16,21.21
		C568.35,203.59,558.85,206.97,548.4,206.97z"/>
	<path class="st12" d="M600.37,304.21c-10.22-1.07-20.48-1.9-30.75-2.51c-7.38,4.72-22.78,7.96-40.6,7.96
		c-17.82,0-33.23-3.25-40.6-7.96c-10.27,0.61-20.53,1.44-30.75,2.51c-20.22,90.11-30.39,174.49-26.98,260.15
		c48.05-10.94,68.61,6.65,97.34,13.55c39.7,9.52,58.87-25.85,99.32-13.55C630.76,478.71,620.58,394.33,600.37,304.21z"/>
	<path class="st13" d="M663.44,443.29c0,0-88.38-7.13-118.22-11.63c-21.61-3.26-86.3-15.49-86.3-15.49l17.42-36.03L663.1,399.5
		L663.44,443.29z"/>
	<ellipse class="st14" cx="461.7" cy="398.07" rx="22.08" ry="21.94"/>
	<path class="st4" d="M447.38,396.48c-1.43,10.75,3.56,20.55,11.54,23.92c-1.38,0.19-2.79,0.22-4.21,0.04
		c-10.28-1.35-17.26-12.57-15.6-25.05c1.66-12.48,11.34-21.51,21.62-20.16c1.42,0.19,2.78,0.58,4.06,1.12
		C456.19,377.56,448.81,385.72,447.38,396.48z"/>
	<path class="st3" d="M394.25,400.96c0,0,88.17-9.29,118.34-10.37c21.84-0.78,87.69-0.69,87.69-0.69l-10.39,38.62l-187.13,15.4
		L394.25,400.96z"/>
	<ellipse class="st15" cx="597.98" cy="402.23" rx="22.08" ry="21.94"/>
	<path class="st4" d="M602.52,421.56c10.85-1.17,19.24-8.32,20.64-16.83c0.52,1.29,0.88,2.64,1.04,4.06
		c1.12,10.24-8.18,19.65-20.78,21.01s-23.72-5.84-24.84-16.08c-0.16-1.42-0.09-2.82,0.13-4.18
		C581.93,417.55,591.67,422.73,602.52,421.56z"/>
</g>
</svg>
