<?xml version="1.0" encoding="utf-8"?>
<!-- Generator: Adobe Illustrator 23.0.1, SVG Export Plug-In . SVG Version: 6.00 Build 0)  -->
<svg version="1.1" xmlns="http://www.w3.org/2000/svg" xmlns:xlink="http://www.w3.org/1999/xlink" x="0px" y="0px"
	 viewBox="0 0 352.61 352.61" style="enable-background:new 0 0 352.61 352.61;" xml:space="preserve">
<style type="text/css">
	.st0{fill:#F2F2F2;}
</style>
<g id="Capa_3">
	<circle class="st0" cx="176" cy="177" r="175.31"/>
</g>
<g id="Pie_derecho">
	<circle cx="222.81" cy="209.81" r="35.5"/>
	<circle cx="217.81" cy="301.81" r="23.5"/>
	<path d="M190.31,224.31c0,0,9.76,10.13,11,28c0.74,10.72-4.22,23.5-7,46l47,1c0,0-0.5-9.17,4-22c3.16-9,7.8-18.35,12-32
		c4-13,6-19,1-41L190.31,224.31z"/>
	<ellipse transform="matrix(0.9829 -0.1842 0.1842 0.9829 -27.4128 38.6994)" cx="194.57" cy="166.88" rx="8" ry="14"/>
	<ellipse transform="matrix(0.1494 -0.9888 0.9888 0.1494 33.8791 366.3395)" cx="229.87" cy="163.48" rx="8.5" ry="6"/>
	<ellipse transform="matrix(1 -7.550380e-03 7.550380e-03 1 -1.2156 1.6104)" cx="212.67" cy="161.81" rx="6" ry="8.5"/>
	<ellipse transform="matrix(0.1318 -0.9913 0.9913 0.1318 46.3657 391.3769)" cx="246.61" cy="169.22" rx="8.5" ry="6"/>
	<ellipse transform="matrix(0.2673 -0.9636 0.9636 0.2673 16.8691 382.2451)" cx="259.8" cy="180.03" rx="8.05" ry="5.68"/>
</g>
<g id="Pie_izquierdo_1_">
	<circle cx="129.17" cy="76.81" r="35.5"/>
	<circle cx="134.17" cy="168.81" r="23.5"/>
	<path d="M161.67,91.31c0,0-9.76,10.13-11,28c-0.74,10.72,4.22,23.5,7,46l-47,1c0,0,0.5-9.17-4-22c-3.16-9-7.8-18.35-12-32
		c-4-13-6-19-1-41L161.67,91.31z"/>
	<ellipse transform="matrix(0.1842 -0.9829 0.9829 0.1842 95.1057 182.354)" cx="157.41" cy="33.88" rx="14" ry="8"/>
	<ellipse transform="matrix(0.9888 -0.1494 0.1494 0.9888 -3.1835 18.59)" cx="122.1" cy="30.48" rx="6" ry="8.5"/>
	<ellipse transform="matrix(7.550380e-03 -1 1 7.550380e-03 109.4493 167.8934)" cx="139.31" cy="28.81" rx="8.5" ry="6"/>
	<ellipse transform="matrix(0.9913 -0.1318 0.1318 0.9913 -3.854 14.201)" cx="105.37" cy="36.22" rx="6" ry="8.5"/>
	<ellipse transform="matrix(0.9636 -0.2673 0.2673 0.9636 -9.2177 26.3541)" cx="92.18" cy="47.03" rx="5.68" ry="8.05"/>
</g>
</svg>
