<?xml version="1.0" encoding="utf-8"?>
<!-- Generator: Adobe Illustrator 23.0.1, SVG Export Plug-In . SVG Version: 6.00 Build 0)  -->
<svg version="1.1" xmlns="http://www.w3.org/2000/svg" xmlns:xlink="http://www.w3.org/1999/xlink" x="0px" y="0px"
	 viewBox="0 0 352.61 352.61" style="enable-background:new 0 0 352.61 352.61;" xml:space="preserve">
<style type="text/css">
	.st0{fill:#FAFAFA;}
	.st1{fill:#2196F3;}
</style>
<g id="Capa_3">
	<circle class="st0" cx="177.31" cy="176.31" r="174"/>
</g>
<g id="Pie_derecho">
	<circle class="st1" cx="227.81" cy="147.81" r="35.5"/>
	<circle class="st1" cx="222.81" cy="239.81" r="23.5"/>
	<path class="st1" d="M195.31,162.31c0,0,9.76,10.13,11,28c0.74,10.72-4.22,23.5-7,46l47,1c0,0-0.5-9.17,4-22
		c3.16-9,7.8-18.35,12-32c4-13,6-19,1-41L195.31,162.31z"/>
	<ellipse transform="matrix(0.9829 -0.1842 0.1842 0.9829 -15.9058 38.5594)" class="st1" cx="199.57" cy="104.88" rx="8" ry="14"/>
	<ellipse transform="matrix(0.1494 -0.9888 0.9888 0.1494 99.4356 318.549)" class="st1" cx="234.87" cy="101.48" rx="8.5" ry="6"/>
	<ellipse transform="matrix(1 -7.550380e-03 7.550380e-03 1 -0.7474 1.6463)" class="st1" cx="217.67" cy="99.81" rx="6" ry="8.5"/>
	
		<ellipse transform="matrix(0.1318 -0.9913 0.9913 0.1318 112.1662 342.5033)" class="st1" cx="251.61" cy="107.22" rx="8.5" ry="6"/>
	
		<ellipse transform="matrix(0.2673 -0.9636 0.9636 0.2673 80.2758 341.638)" class="st1" cx="264.8" cy="118.03" rx="8.05" ry="5.68"/>
</g>
<g id="Pie_izquierdo_1_">
	<circle class="st1" cx="129.17" cy="147.81" r="35.5"/>
	<circle class="st1" cx="134.17" cy="239.81" r="23.5"/>
	<path class="st1" d="M161.67,162.31c0,0-9.76,10.13-11,28c-0.74,10.72,4.22,23.5,7,46l-47,1c0,0,0.5-9.17-4-22
		c-3.16-9-7.8-18.35-12-32c-4-13-6-19-1-41L161.67,162.31z"/>
	<ellipse transform="matrix(0.1842 -0.9829 0.9829 0.1842 25.3208 240.2747)" class="st1" cx="157.41" cy="104.88" rx="14" ry="8"/>
	<ellipse transform="matrix(0.9888 -0.1494 0.1494 0.9888 -13.7941 19.3873)" class="st1" cx="122.1" cy="101.48" rx="6" ry="8.5"/>
	
		<ellipse transform="matrix(7.550380e-03 -1 1 7.550380e-03 38.4513 238.3573)" class="st1" cx="139.31" cy="99.81" rx="8.5" ry="6"/>
	
		<ellipse transform="matrix(0.9913 -0.1318 0.1318 0.9913 -13.2099 14.8202)" class="st1" cx="105.37" cy="107.22" rx="6" ry="8.5"/>
	
		<ellipse transform="matrix(0.9636 -0.2673 0.2673 0.9636 -28.1985 28.9383)" class="st1" cx="92.18" cy="118.03" rx="5.68" ry="8.05"/>
</g>
</svg>
