<?xml version="1.0" encoding="utf-8"?>
<!-- Generator: Adobe Illustrator 23.0.1, SVG Export Plug-In . SVG Version: 6.00 Build 0)  -->
<svg version="1.1" xmlns="http://www.w3.org/2000/svg" xmlns:xlink="http://www.w3.org/1999/xlink" x="0px" y="0px"
	 viewBox="0 0 352.61 352.61" style="enable-background:new 0 0 352.61 352.61;" xml:space="preserve">
<style type="text/css">
	.st0{fill:#FAFAFA;}
	.st1{fill:#2196F3;}
</style>
<g id="Capa_3">
	<circle class="st0" cx="177.31" cy="176.31" r="174"/>
</g>
<g id="Pie_derecho">
	<circle class="st1" cx="212.81" cy="230.81" r="35.5"/>
	<circle class="st1" cx="207.81" cy="322.81" r="23.5"/>
	<path class="st1" d="M180.31,245.31c0,0,9.76,10.13,11,28c0.74,10.72-4.22,23.5-7,46l47,1c0,0-0.5-9.17,4-22
		c3.16-9,7.8-18.35,12-32c4-13,6-19,1-41L180.31,245.31z"/>
	<ellipse transform="matrix(0.9829 -0.1842 0.1842 0.9829 -31.4525 37.2166)" class="st1" cx="184.57" cy="187.88" rx="8" ry="14"/>
	<ellipse transform="matrix(0.1494 -0.9888 0.9888 0.1494 4.6094 374.3135)" class="st1" cx="219.87" cy="184.48" rx="8.5" ry="6"/>
	
		<ellipse transform="matrix(1 -7.550380e-03 7.550380e-03 1 -1.3745 1.5354)" class="st1" cx="202.67" cy="182.81" rx="6" ry="8.5"/>
	
		<ellipse transform="matrix(0.1318 -0.9913 0.9913 0.1318 16.8666 399.6968)" class="st1" cx="236.61" cy="190.22" rx="8.5" ry="6"/>
	
		<ellipse transform="matrix(0.2673 -0.9636 0.9636 0.2673 -10.6932 387.9951)" class="st1" cx="249.8" cy="201.03" rx="8.05" ry="5.68"/>
</g>
<g id="Pie_izquierdo_1_">
	<circle class="st1" cx="151.17" cy="60.81" r="35.5"/>
	<circle class="st1" cx="156.17" cy="152.81" r="23.5"/>
	<path class="st1" d="M183.67,75.31c0,0-9.76,10.13-11,28c-0.74,10.72,4.22,23.5,7,46l-47,1c0,0,0.5-9.17-4-22
		c-3.16-9-7.8-18.35-12-32c-4-13-6-19-1-41L183.67,75.31z"/>
	<ellipse transform="matrix(0.1842 -0.9829 0.9829 0.1842 128.7791 190.925)" class="st1" cx="179.41" cy="17.88" rx="14" ry="8"/>
	<ellipse transform="matrix(0.9888 -0.1494 0.1494 0.9888 -0.5453 21.6981)" class="st1" cx="144.1" cy="14.48" rx="6" ry="8.5"/>
	
		<ellipse transform="matrix(7.550380e-03 -1 1 7.550380e-03 147.2827 174.0136)" class="st1" cx="161.31" cy="12.81" rx="8.5" ry="6"/>
	<ellipse transform="matrix(0.9913 -0.1318 0.1318 0.9913 -1.5537 16.9606)" class="st1" cx="127.37" cy="20.22" rx="6" ry="8.5"/>
	
		<ellipse transform="matrix(0.9636 -0.2673 0.2673 0.9636 -4.1396 31.6531)" class="st1" cx="114.18" cy="31.03" rx="5.68" ry="8.05"/>
</g>
</svg>
